<svg width="135" height="156" viewBox="0 0 135 156" fill="none" xmlns="http://www.w3.org/2000/svg">
<path d="M67.5 0L134.709 39V117L67.5 156L0.29071 117V39L67.5 0Z" fill="#D5E3F6"/>
<path d="M28.3574 67.4841V91.5081L33.1574 94.7841L35.2907 100.244L39.024 105.704L43.2907 111.164L48.0907 115.532L50.7574 117.17H83.2907L86.4907 115.532L90.224 112.256L94.4907 107.342L99.824 99.6981L101.957 94.2381L106.224 91.5081V67.4841L103.557 65.8461L100.891 59.2941L96.624 53.8341V45.6441L83.824 42.3681L81.1574 41.2761L73.6907 39.0921L66.7574 38.5461L58.7574 39.0921L51.2907 42.3681L37.9574 45.6441V53.8341L33.6907 60.3861L31.024 65.8461L28.3574 67.4841Z" fill="white"/>
<path d="M51.1294 116.54L51.2605 117.146C51.1996 117.234 51.1568 117.339 51.1568 117.457C51.1568 117.676 51.279 117.861 51.4526 117.947C51.4494 117.946 51.4452 117.947 51.4418 117.945C44.5116 114.324 37.4234 105.534 32.9113 94.9819L34.443 95.9025C38.6968 105.239 44.9444 112.968 51.1294 116.54Z" fill="#828282"/>
<path d="M32.7911 64.3494L32.6782 64.6209L31.2929 65.2987C31.2955 65.2914 31.2937 65.2826 31.2971 65.2745L31.8628 63.9121C33.4044 60.1754 34.5184 57.4755 37.8656 53.6354C37.9014 53.5945 37.945 53.5677 37.9885 53.5417L38.0009 55.0882C35.2343 58.4291 34.1933 60.9477 32.7911 64.3494Z" fill="#828282"/>
<path d="M52.7966 42.3317H52.6203C52.6955 42.2093 52.7264 42.0567 52.6897 41.904C52.6211 41.6147 52.3454 41.4407 52.0738 41.5129L52.0261 41.5264C55.2297 39.8164 60.9358 38.0015 67.4224 38.0015V39.0853C61.3194 39.0853 55.9474 40.7282 52.7966 42.3317Z" fill="#828282"/>
<path d="M67.4228 38.002C67.5438 38.002 67.6667 38.0082 67.7878 38.011V38.1723C67.6958 38.0684 67.5673 38.002 67.4228 38.002Z" fill="#828282"/>
<path d="M67.7876 38.1714V38.9152C67.6958 39.0198 67.5666 39.0849 67.4231 39.0849V38.002C67.5666 38.002 67.6958 38.068 67.7876 38.1714Z" fill="#828282"/>
<path d="M48.4673 102.727L48.1932 103.004C47.9977 103.203 47.9893 103.535 48.1756 103.746C48.2333 103.81 48.3043 103.85 48.3787 103.876L48.3803 103.887C48.3528 103.877 48.3236 103.879 48.2959 103.864C43.6945 101.293 39.7329 97.8928 36.7375 93.9822V92.2393C39.6577 96.3946 43.7054 100.01 48.4673 102.727Z" fill="#828282"/>
<path d="M40.7608 66.4774L40.4477 66.3699C40.4735 66.3725 40.4968 66.3742 40.5287 66.3778C40.6171 66.3877 40.6922 66.4271 40.7608 66.4774Z" fill="#828282"/>
<path d="M40.2419 67.4376C40.1675 67.4303 40.1142 67.4249 40.0414 67.4196L39.8416 67.4018C38.5022 67.2876 37.3409 67.8143 36.7375 68.3116V67.0276C37.0341 66.8571 37.3742 66.7037 37.7478 66.5813L40.2419 67.4376Z" fill="#828282"/>
<path d="M67.7879 70.2471H52.1711V70.5175H67.7879V70.2471Z" fill="#828282"/>
<path d="M51.6639 71.33C51.77 71.33 51.8745 71.2942 51.9623 71.2265C52.0191 71.1817 52.0608 71.1228 52.0959 71.0596H67.788V71.33H52.2814L56.6758 95.0071H56.2597C56.1301 95.0071 56.0248 95.0714 55.937 95.1571C55.932 95.1625 55.9262 95.1633 55.922 95.1678L55.8586 95.2321L55.7114 95.3804L51.2243 71.2068L51.5085 71.3041C51.5594 71.3218 51.6122 71.33 51.6639 71.33Z" fill="#828282"/>
<path d="M52.1199 117.696C52.2318 117.451 52.1481 117.166 51.9426 117.016L51.9642 116.916H67.7885V118H51.6644C51.8515 118 52.032 117.889 52.1197 117.696" fill="#828282"/>
<path d="M51.1568 117.458C51.1568 117.339 51.1995 117.234 51.2604 117.145L51.3415 117.519C51.3681 117.641 51.471 117.729 51.5887 117.729H51.5897C51.7066 117.729 51.8093 117.641 51.8362 117.517L51.9423 117.016C52.1486 117.166 52.2315 117.45 52.1194 117.696C52.0317 117.888 51.852 117.999 51.6639 117.999C51.5929 117.999 51.5211 117.981 51.4526 117.948C51.2789 117.861 51.1568 117.676 51.1568 117.458Z" fill="#828282"/>
<path d="M56.6155 95.1884C56.4324 94.9831 56.1358 94.9741 55.9371 95.1582C56.0247 95.0716 56.13 95.0073 56.2596 95.0073H67.7879V96.092H56.4384L56.5971 95.9296C56.7926 95.7295 56.801 95.3973 56.6155 95.1884Z" fill="#828282"/>
<path d="M48.5311 103.927C48.6565 103.927 48.7676 103.862 48.862 103.771C48.8636 103.768 48.867 103.767 48.8696 103.765L48.8737 103.761L51.5859 116.248L55.7313 96.8078L56.3956 96.1345L51.9645 116.915H51.7899C51.5701 116.799 51.3495 116.668 51.1289 116.54L48.3807 103.887C48.4309 103.904 48.4802 103.927 48.5311 103.927Z" fill="#828282"/>
<path d="M51.6649 116.916C51.4957 116.916 51.3526 117.009 51.2604 117.146L51.129 116.541C51.35 116.668 51.5702 116.8 51.7904 116.916H51.6649Z" fill="#828282"/>
<path d="M48.8623 103.771C48.7685 103.863 48.6572 103.928 48.5308 103.928C48.4806 103.928 48.4303 103.904 48.3809 103.888L48.3785 103.876C48.4279 103.894 48.479 103.908 48.5316 103.908C48.6506 103.908 48.7677 103.863 48.8623 103.771Z" fill="#828282"/>
<path d="M51.7897 116.916H51.964L51.9424 117.017C51.9232 117.003 51.9089 116.983 51.8873 116.971C51.8548 116.955 51.8221 116.933 51.7897 116.916Z" fill="#828282"/>
<path d="M51.7906 116.916C51.8232 116.933 51.8559 116.955 51.8885 116.971C51.9102 116.982 51.9244 117.003 51.9437 117.017L51.8374 117.518C51.8107 117.642 51.7077 117.729 51.5897 117.729H51.5887C51.4716 117.729 51.3687 117.642 51.3418 117.52L51.2606 117.146C51.3526 117.009 51.4951 116.916 51.6651 116.916H51.7906Z" fill="#828282"/>
<path d="M58.0626 42.4507C58.0783 42.4742 58.0783 42.5028 58.0866 42.5296C58.0741 42.492 58.0595 42.4569 58.0348 42.4292C58.0437 42.4382 58.0561 42.44 58.0626 42.4507Z" fill="#828282"/>
<path d="M48.9497 46.0022L51.6158 45.0808L48.9497 46.0022Z" fill="#828282"/>
<path d="M48.9497 62.4567V62.3146L50.9108 60.4853C51.2441 53.3444 55.7295 45.5125 57.1758 43.1588L57.9278 42.8991C57.988 42.8785 58.0349 42.834 58.0682 42.7812C58.0658 42.7847 58.0666 42.7883 58.065 42.7911C58.0022 42.8856 51.7823 52.297 51.4496 60.6353C51.4464 60.7146 51.4129 60.7896 51.357 60.8423L49.522 62.554L48.9656 62.4556C48.9597 62.4547 48.9547 62.4567 48.9497 62.4567Z" fill="#828282"/>
<path d="M48.6334 45.5001L51.9097 44.3672L48.6342 45.5001H48.6334Z" fill="#828282"/>
<path d="M57.1753 43.1589L51.6154 45.0812L57.1753 43.1589Z" fill="#828282"/>
<path d="M58.1115 42.5771C58.1125 42.5853 58.1076 42.5906 58.1084 42.5985C58.1058 42.5746 58.0945 42.5523 58.0871 42.5291C58.0929 42.547 58.1091 42.5585 58.1115 42.5771Z" fill="#828282"/>
<path d="M57.8804 42.3461C57.8411 42.3408 57.8002 42.3326 57.7601 42.3461L51.9102 44.3675L56.1231 42.9112L51.3922 42.9058L48.1042 43.7139L52.3239 42.563C52.3455 42.5576 52.3622 42.5416 52.3814 42.5336C52.3965 42.5274 52.4123 42.53 52.4266 42.5221C52.5445 42.4586 52.6722 42.3952 52.7968 42.3318H57.8437C57.8577 42.3318 57.867 42.3444 57.8804 42.3461Z" fill="#828282"/>
<path d="M52.3818 42.5344C52.4812 42.4914 52.5646 42.4232 52.6205 42.3318H52.7969C52.6724 42.3954 52.5437 42.4591 52.4269 42.5225C52.4126 42.5307 52.3968 42.5279 52.3818 42.5344Z" fill="#828282"/>
<path d="M57.1758 43.1591L51.6159 45.0814L48.9495 46.0028V45.7911C48.9495 45.6304 48.8276 45.5001 48.6772 45.5001H48.6347L51.9101 44.368L57.76 42.3457C57.8009 42.3324 57.841 42.3403 57.8803 42.3457C57.9162 42.3519 57.9463 42.3645 57.9772 42.384C57.9988 42.3984 58.0181 42.4091 58.0349 42.4288C58.06 42.4564 58.075 42.4922 58.0875 42.5287C58.0949 42.552 58.1067 42.5743 58.1091 42.5983C58.1125 42.6412 58.0999 42.6806 58.0859 42.7215C58.0782 42.7421 58.079 42.7635 58.0682 42.7815C58.0349 42.834 57.988 42.8788 57.9278 42.8994L57.1758 43.1591Z" fill="#828282"/>
<path d="M40.596 61.6379C40.743 61.6334 40.8601 61.5031 40.8559 61.345L40.8509 61.1191L46.3758 62.3315L46.3774 62.6834L46.8954 62.6798C46.8954 62.7003 46.9096 62.7173 46.9054 62.7387C46.8795 62.8735 46.7684 62.9665 46.6439 62.9665C46.6264 62.9665 46.6088 62.9645 46.5905 62.9602L40.5359 61.6317C40.5108 61.6263 40.4982 61.6013 40.4765 61.5888C40.5132 61.6092 40.5459 61.6379 40.5894 61.6379H40.596Z" fill="#828282"/>
<path d="M48.6773 46.0819C48.7066 46.0819 48.7343 46.0774 48.7618 46.0676L48.9502 46.0024V62.4564C48.705 62.4225 48.4749 62.5878 48.4046 62.8404V46.0819H48.6773Z" fill="#828282"/>
<path d="M48.5933 45.5139C48.4814 45.5533 48.4046 45.665 48.4046 45.7908V46.0818H39.4171L41.5512 45.4998H48.6334L48.5933 45.5139Z" fill="#828282"/>
<path d="M48.6775 46.0825H48.4046V45.7911C48.4046 45.6652 48.4816 45.5535 48.5939 45.5142L48.6341 45.5007H48.6775C48.8282 45.5007 48.9505 45.6302 48.9505 45.7911V46.0029L48.7621 46.0681C48.7345 46.078 48.7068 46.0825 48.6775 46.0825Z" fill="#828282"/>
<path d="M46.3005 48.7946L40.5533 48.6001L40.6002 50.5866L40.3561 50.5706C40.2081 50.5661 40.0828 50.6794 40.0728 50.8365L40.0126 48.3125C40.0102 48.2339 40.0387 48.1589 40.0904 48.1036C40.1422 48.0483 40.2116 48.008 40.2868 48.0206L46.5737 48.2339C46.7167 48.2384 46.826 48.3652 46.8278 48.5161L46.2987 48.5206L46.3005 48.7946Z" fill="#828282"/>
<path d="M40.3219 51.1388L40.6147 51.1583L40.6675 53.3736L40.434 53.3476C40.2892 53.3279 40.1555 53.4449 40.1404 53.6011C40.1254 53.7573 40.2316 53.8977 40.3779 53.9146L40.6807 53.9485L40.7309 56.0628L40.6289 56.0467C40.4767 56.0234 40.3478 56.1324 40.3261 56.2878C40.3043 56.4431 40.4065 56.5878 40.552 56.6109L40.7452 56.6413L40.7938 58.7064L40.6398 58.6761C40.4825 58.6494 40.3555 58.7492 40.3277 58.9037C40.301 59.0591 40.3964 59.2073 40.5412 59.2367L40.808 59.2894L40.8514 61.1198L40.644 61.0733C40.496 61.042 40.3587 61.1421 40.3285 61.2957C40.3193 61.3457 40.3394 61.3876 40.3536 61.4331C40.3454 61.4071 40.3243 61.3885 40.3235 61.3609L40.0726 50.8369C40.0633 50.9931 40.1756 51.129 40.3219 51.1388Z" fill="#828282"/>
<path d="M40.6437 61.0736L40.8522 61.1193L40.8572 61.3453C40.8612 61.5033 40.7441 61.6339 40.5968 61.6384H40.59C40.5466 61.6384 40.5139 61.6097 40.4771 61.5891C40.4443 61.5713 40.4152 61.558 40.3917 61.5275C40.37 61.4999 40.364 61.4686 40.3531 61.4336C40.3399 61.3882 40.3188 61.3453 40.328 61.2962C40.3592 61.1424 40.4964 61.0414 40.6437 61.0736Z" fill="#828282"/>
<path d="M46.6979 62.4028L46.3759 62.3321L46.365 60.3956C46.3732 60.3974 46.3833 60.3982 46.3917 60.3982C46.518 60.3982 46.63 60.3026 46.6543 60.1661C46.681 60.0116 46.5859 59.8625 46.4411 59.8332L46.3616 59.8171L46.349 57.5198L46.4369 57.5333C46.4503 57.535 46.4628 57.5359 46.4754 57.5359C46.6068 57.5359 46.7196 57.4349 46.7397 57.2922C46.7614 57.1367 46.6602 56.992 46.5138 56.9689L46.3457 56.9429L46.3323 54.5886L46.3632 54.5923C46.3724 54.5931 46.3825 54.594 46.3917 54.594C46.5264 54.594 46.6427 54.4851 46.6577 54.3386C46.672 54.1824 46.5658 54.0422 46.4192 54.0253L46.3289 54.0146L46.3146 51.5467L46.4578 51.5574C46.4636 51.5574 46.4694 51.5583 46.4754 51.5583C46.615 51.5583 46.733 51.4424 46.7423 51.2904C46.7515 51.1334 46.6393 50.9986 46.4929 50.9887L46.3122 50.9763L46.2996 48.7949L46.5574 48.8039C46.7011 48.8299 46.8276 48.6844 46.8316 48.5281C46.8326 48.5236 46.8284 48.5209 46.8284 48.5164H46.8316L46.9111 62.6803H46.8953C46.8929 62.55 46.8226 62.4304 46.6979 62.4026" fill="#828282"/>
<path d="M46.3759 62.3323L46.6981 62.4028C46.8237 62.4305 46.894 62.5503 46.8966 62.6807L46.3775 62.6844L46.3759 62.3323Z" fill="#828282"/>
<path d="M46.5573 48.8035L46.3004 48.7945L46.2988 48.5202L46.8286 48.5166C46.8286 48.5211 46.8328 48.5239 46.8328 48.5273C46.8286 48.6847 46.7014 48.8294 46.5573 48.8035Z" fill="#828282"/>
<path fill-rule="evenodd" clip-rule="evenodd" d="M46.315 51.5464L40.5657 51.1547L40.5996 50.5867L46.3489 50.9784L46.315 51.5464Z" fill="#828282"/>
<path d="M40.3568 50.5702L40.6011 50.5871L40.6145 51.159L40.3216 51.1393C40.1759 51.1294 40.0636 50.9937 40.0729 50.8374V50.8363C40.0821 50.6791 40.2085 50.5657 40.3568 50.5702Z" fill="#828282"/>
<path d="M46.4933 50.9885C46.6398 50.9984 46.7519 51.1341 46.7426 51.2904C46.7334 51.4424 46.6155 51.5584 46.4756 51.5584C46.4698 51.5584 46.464 51.5576 46.4582 51.5576L46.3157 51.5469L46.3125 50.9761L46.4933 50.9885Z" fill="#828282"/>
<path d="M40.6667 53.3738L46.3295 54.0147L46.3327 54.5879L40.681 53.9487L40.6667 53.3735V53.3738Z" fill="#828282"/>
<path d="M40.3785 53.9148C40.2318 53.8978 40.1255 53.7576 40.1406 53.6013C40.1557 53.445 40.2897 53.3279 40.4345 53.3476L40.668 53.3744L40.6815 53.9489L40.3785 53.9148Z" fill="#828282"/>
<path d="M46.4195 54.0254C46.5656 54.0423 46.6719 54.1825 46.6576 54.3391C46.6426 54.4855 46.5266 54.5944 46.3921 54.5944C46.3829 54.5944 46.3728 54.5936 46.3636 54.5927L46.3328 54.5891L46.3293 54.0146L46.4195 54.0254Z" fill="#828282"/>
<path d="M40.7305 56.0625L46.3455 56.9428L46.3489 57.5196L40.7447 56.6411L40.7305 56.0625Z" fill="#828282"/>
<path d="M40.5519 56.6113C40.4062 56.588 40.305 56.4432 40.3259 56.2878C40.3478 56.1323 40.4766 56.0234 40.6291 56.0466L40.7311 56.0626L40.7454 56.6416L40.5519 56.6113Z" fill="#828282"/>
<path d="M46.514 56.9688C46.6593 56.992 46.7605 57.1369 46.7394 57.2924C46.7194 57.4343 46.606 57.5362 46.4757 57.5362C46.463 57.5362 46.4498 57.5353 46.4372 57.5336L46.3486 57.5201L46.3454 56.9429L46.514 56.9688Z" fill="#828282"/>
<path d="M40.8069 59.2896L40.7926 58.7065L46.361 59.8172L46.3642 60.3957C46.3576 60.3949 46.35 60.3949 46.3425 60.3932L40.8069 59.2896Z" fill="#828282"/>
<path d="M40.5406 59.2371C40.3959 59.2075 40.3005 59.0593 40.3274 58.9039C40.3549 58.7501 40.4822 58.6491 40.6394 58.6759L40.7942 58.7064L40.8075 59.2907L40.5406 59.2371Z" fill="#828282"/>
<path d="M46.4411 59.8332C46.5856 59.8626 46.6808 60.0118 46.6541 60.1664C46.6299 60.3032 46.5181 60.3986 46.3918 60.3986C46.3836 60.3986 46.3735 60.3978 46.3651 60.3961L46.3617 59.8171L46.4411 59.8332Z" fill="#828282"/>
<path d="M52.1716 63.7504V63.4789C52.1716 63.3791 52.1397 63.2897 52.0948 63.2085H67.7885V63.7504H52.1716Z" fill="#828282"/>
<path d="M52.1714 70.5175L67.7883 70.5173V71.0595H52.0954C52.1414 70.9772 52.1714 70.887 52.1714 70.7888V70.5173V70.5175Z" fill="#828282"/>
<path d="M51.7458 42.2817C51.7559 42.3031 51.7767 42.3119 51.7894 42.3316H51.3313L38.3726 45.5075C38.3415 45.5154 38.3248 45.5422 38.299 45.5593C38.2805 45.5718 38.2554 45.569 38.2396 45.5861C38.2346 45.5923 38.2362 45.6022 38.2312 45.6084C38.2037 45.6431 38.1953 45.6851 38.1853 45.7297C38.1802 45.753 38.1602 45.77 38.161 45.794L38.2238 53.4643C38.1409 53.4671 38.0625 53.4973 37.9889 53.5421L37.9254 45.7959C37.9238 45.5458 38.0818 45.3279 38.3082 45.2656L52.0258 41.5264C52.0081 41.5362 51.9891 41.545 51.9714 41.5549C51.7208 41.6888 51.6205 42.0147 51.7458 42.2817Z" fill="#828282"/>
<path d="M38.5559 61.1727H38.5585C38.7089 61.1719 38.83 61.0405 38.8284 60.8789L38.7073 46.082H39.4174L38.9437 46.2106L39.0632 60.8772C39.064 61.0486 38.9896 61.2102 38.8617 61.3146C38.7348 61.4174 38.5685 61.4496 38.4139 61.4022L36.8948 60.9271V65.1502L40.4478 66.3699C40.2965 66.3538 40.2288 66.3476 40.1193 66.3386L39.9237 66.3225C39.1266 66.2537 38.388 66.3707 37.7479 66.5816L36.7378 66.2342V62.6352L35.8797 63.0547V60.204C35.8797 60.0334 35.9557 59.8727 36.0834 59.77C36.2114 59.6674 36.376 59.6353 36.5296 59.6843L38.0429 60.1566L38.0012 55.0889C38.0764 54.9978 38.1566 54.905 38.2342 54.8131L38.2835 60.8843C38.2852 61.0441 38.4073 61.1727 38.5559 61.1727Z" fill="#828282"/>
<path d="M51.4112 70.2466H51.0468L51.2249 71.2064L40.242 67.4378C40.2905 67.4423 40.3457 67.4477 40.4267 67.4565C40.699 67.4878 40.9547 67.2701 40.9824 66.9718C41.0014 66.7682 40.908 66.5852 40.7608 66.4772L51.1571 70.0458V63.9397L48.8008 63.5255C48.5242 63.4762 48.3371 63.1977 48.383 62.9022C48.3863 62.8799 48.3997 62.8621 48.4047 62.8407V62.9549C48.4047 63.0254 48.4348 63.0852 48.4757 63.1379C48.4875 63.1531 48.5008 63.161 48.515 63.1737C48.5326 63.1889 48.5443 63.2092 48.5643 63.2191C48.601 63.236 48.6395 63.245 48.677 63.245C48.7414 63.245 48.8058 63.221 48.8567 63.1737L49.5219 62.554L51.7463 62.945C51.8991 62.9718 52.0202 63.0736 52.0946 63.2084H51.4112V70.2466Z" fill="#828282"/>
<path d="M52.1712 63.7507H51.9174V70.2471H52.1712V63.7507Z" fill="#828282"/>
<path d="M40.8316 45.5001L48.1035 43.7136L41.551 45.5001H40.8316Z" fill="#828282"/>
<path d="M38.2341 54.8135C38.1566 54.9054 38.0764 54.9982 38.0013 55.0884L37.9887 53.5421C38.0622 53.4965 38.1405 53.4671 38.2233 53.4644L38.2341 54.8135Z" fill="#828282"/>
<path d="M52.6897 41.9038C52.7264 42.0566 52.6955 42.2091 52.6203 42.3315H51.7888C51.7762 42.3118 51.7553 42.303 51.7453 42.2816C51.62 42.0146 51.7202 41.6887 51.9709 41.5539C51.9886 41.5449 52.0086 41.535 52.0261 41.526L52.0738 41.5127C52.3453 41.4403 52.6203 41.6145 52.6897 41.9038Z" fill="#828282"/>
<path d="M40.9823 66.9713C40.9547 67.2693 40.699 67.4881 40.4266 67.456C40.3456 67.4472 40.2905 67.4418 40.2419 67.4373L37.7477 66.5811C38.3886 66.3704 39.1264 66.2534 39.9235 66.3222L40.119 66.3391C40.2293 66.3479 40.2963 66.3533 40.4475 66.3694L40.7607 66.4765C40.9079 66.5856 41.0006 66.7677 40.9823 66.9713Z" fill="#828282"/>
<path d="M52.1714 70.2471H51.9174V70.5177H52.1714V70.2471Z" fill="#828282"/>
<path d="M51.411 70.2468V71.0602H52.0952C52.061 71.1228 52.0192 71.1817 51.9625 71.2263C51.8747 71.2951 51.7702 71.3298 51.6641 71.3298C51.6123 71.3298 51.5596 71.3219 51.5087 71.3049L51.2247 71.2066L51.0466 70.2468H51.411Z" fill="#828282"/>
<path d="M48.677 63.2455C48.8275 63.2455 48.9497 63.1151 48.9497 62.9543V62.4567C48.9555 62.4567 48.9597 62.4549 48.9655 62.4558L49.5224 62.554L48.8568 63.1741C48.8058 63.2215 48.7414 63.2455 48.677 63.2455Z" fill="#828282"/>
<path d="M48.5641 63.2196C48.5441 63.2097 48.5315 63.1884 48.5149 63.1741C48.5607 63.2125 48.6132 63.2454 48.6764 63.2454C48.639 63.2454 48.5998 63.2365 48.5641 63.2196Z" fill="#828282"/>
<path d="M52.3816 42.5334C52.3616 42.5416 52.3457 42.5576 52.3239 42.563L48.1033 43.7139L40.8314 45.5003H38.4324C38.3823 45.5003 38.3413 45.5316 38.2988 45.5593C38.3239 45.5423 38.3413 45.5147 38.3714 45.5076L51.3312 42.3318H51.7892C51.8853 42.4826 52.0349 42.5799 52.1985 42.5799C52.2605 42.5799 52.3215 42.5585 52.3816 42.5336" fill="#828282"/>
<path d="M52.1989 42.5803C52.0349 42.5803 51.8854 42.483 51.7883 42.332H52.6203C52.5651 42.4232 52.4814 42.4911 52.3821 42.534C52.3219 42.5589 52.2607 42.5803 52.1989 42.5803Z" fill="#828282"/>
<path d="M38.4331 46.0817H38.7084L38.8296 60.8795C38.8312 61.0402 38.71 61.1715 38.5594 61.1724H38.556C38.408 61.1724 38.2857 61.0438 38.2841 60.8848L38.2347 54.8136C38.3578 54.6681 38.4783 54.5235 38.608 54.3744C38.7995 54.1556 38.7877 53.8127 38.5829 53.6092C38.4815 53.5082 38.352 53.4609 38.2239 53.4645L38.1604 45.7933C38.1604 45.7691 38.1795 45.7521 38.1855 45.729C38.1779 45.762 38.1586 45.7888 38.162 45.8237C38.1779 45.9701 38.2942 46.0817 38.4331 46.0817Z" fill="#828282"/>
<path d="M38.2394 45.5859C38.2552 45.5689 38.2801 45.5717 38.2985 45.5591C38.2751 45.5751 38.2486 45.5859 38.231 45.6081C38.236 45.6019 38.2344 45.5921 38.2394 45.5859Z" fill="#828282"/>
<path d="M38.6079 54.3744C38.4781 54.5236 38.3569 54.6682 38.2338 54.8137L38.223 53.4637C38.3511 53.4612 38.4816 53.5083 38.5828 53.6092C38.7877 53.8128 38.7994 54.1556 38.6079 54.3744Z" fill="#828282"/>
<path d="M48.9509 62.4563V62.9548C48.9509 63.1157 48.8286 63.2452 48.6779 63.2452C48.6144 63.2452 48.5616 63.213 48.5156 63.1736C48.5005 63.1611 48.4878 63.1532 48.4762 63.138C48.4352 63.0861 48.4051 63.0254 48.4051 62.9548V62.8403C48.4754 62.5867 48.7056 62.4214 48.9509 62.4563Z" fill="#828282"/>
<path d="M38.4326 45.5H41.551L39.417 46.0814H38.4326C38.294 46.0814 38.1777 45.9706 38.1619 45.8234C38.1587 45.7893 38.1777 45.7616 38.1854 45.7295C38.1946 45.6849 38.2028 45.6429 38.2313 45.6082C38.2489 45.5857 38.2756 45.575 38.2991 45.5589C38.3416 45.5321 38.3825 45.5 38.4326 45.5Z" fill="#828282"/>
<path d="M52.1725 63.7504H51.9181V70.2468H51.4112V63.2085H52.0956C52.1408 63.2897 52.1725 63.3791 52.1725 63.4789V63.7504Z" fill="#828282"/>
<path d="M52.173 70.5179V70.7893C52.173 70.8875 52.1429 70.9778 52.0969 71.0602H51.4112V70.2471H51.9185V70.5177H52.173V70.5179Z" fill="#828282"/>
<path d="M31.5535 65.9911C31.6213 66.0232 31.6915 66.0384 31.7607 66.0384C31.9538 66.0384 32.1393 65.9189 32.2237 65.7179L32.6782 64.6216L35.8801 63.0554V65.5447C35.8801 65.7804 36.0221 65.9893 36.2319 66.0607L36.7383 66.2349V67.0277C36.4826 67.175 36.2578 67.3322 36.0715 67.4902C35.8535 67.6768 35.8166 68.0179 35.9912 68.2517C36.0907 68.3867 36.2387 68.4561 36.3873 68.4561C36.4984 68.4561 36.6097 68.4178 36.7032 68.3383C36.7132 68.3295 36.7274 68.3205 36.7383 68.3126V92.2396C36.7058 92.1941 36.6699 92.1502 36.6372 92.1048C36.5153 91.9271 36.3113 91.8556 36.1234 91.8995C36.11 91.8084 36.0699 91.7227 35.982 91.6852L35.7231 91.5761V72.3901L35.9411 72.3411C36.0783 72.3106 36.1667 72.1668 36.1374 72.0205C36.1092 71.8739 35.973 71.7794 35.8376 71.8116L35.7231 71.8364V64.3233L29.3041 67.4642V66.3545L28.3507 66.7385L31.2928 65.2992C31.1942 65.567 31.3055 65.8724 31.5535 65.9911Z" fill="#828282"/>
<path d="M35.723 95.428V92.1585L35.7832 92.1836C35.6996 92.3612 35.7054 92.58 35.8233 92.7495C36.1141 93.1673 36.4257 93.5753 36.7382 93.9825V97.2798L34.443 95.9022C34.2124 95.3958 33.9826 94.8878 33.7636 94.3709C33.6467 94.0986 33.3459 93.9816 33.0918 94.1022C32.8361 94.2254 32.7242 94.5469 32.8387 94.8192C32.8628 94.8745 32.8878 94.9281 32.9113 94.9825L29.3042 92.8174V91.5737L35.723 95.428Z" fill="#828282"/>
<path d="M33.091 94.1017C33.3451 93.9812 33.6467 94.0982 33.7628 94.3715C33.9818 94.8874 34.2116 95.3955 34.443 95.9027L32.9115 94.9822C32.8881 94.9286 32.8622 94.8742 32.8387 94.8195C32.7234 94.5463 32.8363 94.226 33.091 94.1017Z" fill="#828282"/>
<path d="M32.224 65.7176C32.1388 65.9192 31.9541 66.0379 31.7612 66.0379C31.691 66.0379 31.6208 66.0229 31.5538 65.9906C31.3049 65.8719 31.1946 65.5676 31.2931 65.2987L32.6786 64.6211L32.224 65.7174V65.7176Z" fill="#828282"/>
<path d="M35.8891 92.2077C35.9902 92.2077 36.0855 92.1423 36.1248 92.0362C36.1414 91.9906 36.129 91.9452 36.1232 91.8987C36.311 91.855 36.515 91.9272 36.6377 92.104C36.6696 92.1505 36.7055 92.1933 36.738 92.2387V93.9817C36.4256 93.5746 36.1139 93.1664 35.8232 92.7485C35.7044 92.579 35.6986 92.3611 35.7831 92.1835L35.7963 92.1888C35.8264 92.2012 35.8574 92.2074 35.8891 92.2074" fill="#828282"/>
<path d="M36.7034 68.3381C36.6097 68.4176 36.4986 68.4559 36.3876 68.4559C36.2387 68.4559 36.0907 68.3863 35.9915 68.2515C35.8168 68.0175 35.8527 67.6766 36.0717 67.49C36.258 67.3318 36.4828 67.1748 36.7385 67.0273V68.3121C36.7277 68.3203 36.7134 68.3291 36.7034 68.3381Z" fill="#828282"/>
<path d="M36.738 66.2343L36.2324 66.0603C36.0227 65.989 35.8797 65.7801 35.8797 65.5452V63.0551L36.738 62.6355V66.2343Z" fill="#828282"/>
<path d="M28.3501 66.7385L28.2891 66.7679V92.2075L29.3045 92.8173V92.8458L27.7411 91.9441V66.983L28.3501 66.7385Z" fill="#828282"/>
<path d="M28.2892 66.7681L28.3502 66.7385L29.3037 66.3547V73.2749L28.7447 73.4001C28.6077 73.4303 28.5191 73.5749 28.5483 73.7215C28.5734 73.8481 28.6787 73.9366 28.7964 73.9366C28.814 73.9366 28.8307 73.9338 28.8483 73.9304L29.3037 73.8286V88.8683L28.8892 88.6943C28.7605 88.6416 28.6119 88.7076 28.5608 88.8469C28.5098 88.9853 28.5726 89.1435 28.7037 89.1979L29.3037 89.4514V92.8173L28.2892 92.2077V66.7681Z" fill="#828282"/>
<path d="M35.7231 92.1577L29.3042 89.4516V88.8677L35.7231 91.5758V92.1577Z" fill="#828282"/>
<path d="M35.9816 91.6849C36.0691 91.7224 36.1091 91.8081 36.1226 91.8993C36.0541 91.9162 35.9874 91.9447 35.9281 91.9921C35.863 92.044 35.8171 92.112 35.7829 92.1843L35.7228 92.1583V91.5759L35.9816 91.6849Z" fill="#828282"/>
<path d="M36.1227 91.8994C36.1285 91.9459 36.1409 91.9914 36.1243 92.0362C36.085 92.1423 35.9898 92.2086 35.8888 92.2086C35.8579 92.2086 35.8262 92.2024 35.7962 92.1897L35.7827 92.1835C35.817 92.1113 35.8629 92.0441 35.9281 91.9923C35.9874 91.9451 36.0541 91.9164 36.1227 91.8994Z" fill="#828282"/>
<path d="M28.7044 89.1982C28.573 89.1429 28.5104 88.9857 28.5614 88.8464C28.6124 88.7079 28.7615 88.6416 28.8903 88.6944L29.3055 88.8687V89.4521L28.7044 89.1982Z" fill="#828282"/>
<path d="M35.7231 72.3899L29.3042 73.8282V73.2755L35.7231 71.8364V72.3899Z" fill="#828282"/>
<path d="M35.8375 71.811C35.9731 71.7796 36.1095 71.8736 36.1379 72.02C36.1672 72.1665 36.0786 72.3112 35.9412 72.3416L35.7228 72.3899V71.8369L35.8375 71.811Z" fill="#828282"/>
<path d="M28.8488 73.9311C28.8313 73.9347 28.8145 73.9373 28.797 73.9373C28.6789 73.9373 28.5734 73.8488 28.5483 73.722C28.5191 73.5756 28.6077 73.4308 28.7452 73.4004L29.3051 73.2754V73.8292L28.8488 73.9311Z" fill="#828282"/>
<path d="M56.4386 96.0913L56.3949 96.135L56.4042 96.0913H56.4386Z" fill="#828282"/>
<path d="M55.8434 96.0914H55.8835L55.7305 96.8084L48.8739 103.762L48.8729 103.758C48.9106 103.719 48.9549 103.688 48.9808 103.636C49.1104 103.371 49.0143 103.043 48.7668 102.905C48.665 102.847 48.5681 102.784 48.4668 102.727L55.7113 95.3806L55.8434 96.0914Z" fill="#828282"/>
<path d="M48.9806 103.636C48.9547 103.688 48.9104 103.719 48.8729 103.758L48.7784 103.322C48.7467 103.178 48.6138 103.081 48.4742 103.121C48.3372 103.154 48.2528 103.3 48.2845 103.445L48.3781 103.876C48.3037 103.849 48.2336 103.81 48.176 103.746C47.9897 103.536 47.9979 103.203 48.1935 103.004L48.4676 102.726C48.5687 102.784 48.6647 102.847 48.7668 102.904C49.0148 103.043 49.1109 103.371 48.9806 103.636Z" fill="#828282"/>
<path d="M55.7518 95.5494C55.7518 95.7057 55.816 95.8443 55.9141 95.9435L55.8833 96.0917H55.8426L55.7118 95.3815L55.8575 95.2332C55.796 95.3226 55.7518 95.4279 55.7518 95.5494Z" fill="#828282"/>
<path d="M56.5077 95.6085C56.5377 95.4628 56.4525 95.3182 56.3163 95.2843C56.1784 95.2513 56.0446 95.3432 56.0121 95.4887L55.916 95.9432C55.8166 95.8442 55.7522 95.705 55.7522 95.5496C55.7522 95.4281 55.7965 95.3227 55.8591 95.2325C55.8799 95.2022 55.9118 95.1834 55.9377 95.1575C56.1366 94.9736 56.4333 94.9826 56.6162 95.1879C56.8017 95.3977 56.7934 95.7298 56.5979 95.9289L56.4383 96.0915H56.4048L56.5077 95.6085Z" fill="#828282"/>
<path d="M55.9371 95.1575C55.9112 95.1836 55.8797 95.2023 55.8589 95.2329L55.9212 95.1682C55.9262 95.1637 55.9321 95.1629 55.9371 95.1575Z" fill="#828282"/>
<path d="M55.8842 96.0913H56.4058L56.3966 96.1351L55.7309 96.8087L55.8842 96.0913Z" fill="#828282"/>
<path d="M48.4745 103.121C48.6144 103.081 48.7476 103.178 48.7793 103.323L48.874 103.759C48.8697 103.762 48.8663 103.768 48.8621 103.772C48.7685 103.862 48.6503 103.909 48.5324 103.909C48.4796 103.909 48.4285 103.893 48.3783 103.876L48.2845 103.446C48.2527 103.3 48.3373 103.154 48.4745 103.121Z" fill="#828282"/>
<path d="M56.2595 96.0919H55.8837L55.9154 95.9431C56.0056 96.0337 56.1258 96.0919 56.2595 96.0919Z" fill="#828282"/>
<path d="M56.0125 95.4889C56.045 95.3433 56.179 95.2504 56.3163 95.2843C56.4537 95.3182 56.5391 95.4629 56.5089 95.6087L56.4059 96.092H56.2602C56.1262 96.092 56.0067 96.0331 55.9153 95.9437L56.0125 95.4889Z" fill="#828282"/>
<path d="M84.4504 116.54L84.3193 117.146C84.3794 117.234 84.4228 117.339 84.4228 117.457C84.4228 117.676 84.3 117.861 84.1262 117.947C84.1296 117.946 84.1338 117.947 84.1378 117.945C91.0682 114.324 98.1554 105.534 102.668 94.9819L101.137 95.9025C96.8822 105.239 90.6352 112.968 84.4504 116.54Z" fill="#828282"/>
<path d="M102.788 64.3494L102.901 64.6209L104.286 65.2987C104.283 65.2914 104.284 65.2826 104.281 65.2745L103.716 63.9121C102.174 60.1754 101.061 57.4755 97.7125 53.6354C97.6774 53.5945 97.6332 53.5677 97.5897 53.5417L97.5781 55.0882C100.344 58.4291 101.385 60.9477 102.788 64.3494Z" fill="#828282"/>
<path d="M82.7825 42.3317H82.9588C82.8836 42.2093 82.8527 42.0567 82.8894 41.904C82.9588 41.6147 83.2329 41.4407 83.5053 41.5129L83.5538 41.5264C80.3502 39.8164 74.6431 38.0015 68.1565 38.0015V39.0853C74.2596 39.0853 79.6315 40.7282 82.7825 42.3317Z" fill="#828282"/>
<path d="M68.1562 38.002C68.0352 38.002 67.9123 38.0082 67.7905 38.011V38.1723C67.8831 38.0684 68.0109 38.002 68.1562 38.002Z" fill="#828282"/>
<path d="M67.7901 38.1714V38.9152C67.8825 39.0198 68.0111 39.0849 68.1554 39.0849V38.002C68.0111 38.002 67.8825 38.068 67.7901 38.1714Z" fill="#828282"/>
<path d="M87.112 102.727L87.3851 103.004C87.5814 103.203 87.589 103.535 87.4035 103.746C87.345 103.81 87.2748 103.85 87.2004 103.876L87.1988 103.887C87.2265 103.877 87.2556 103.879 87.2824 103.864C91.8848 101.293 95.8454 97.8928 98.8408 93.9822V92.2393C95.9214 96.3946 91.8729 100.01 87.112 102.727Z" fill="#828282"/>
<path d="M94.817 66.4774L95.1308 66.3699C95.105 66.3725 95.0807 66.3742 95.0491 66.3778C94.9613 66.3877 94.8853 66.4271 94.817 66.4774Z" fill="#828282"/>
<path d="M95.3372 67.4376C95.4114 67.4303 95.4641 67.4249 95.5377 67.4196L95.7373 67.4018C97.0768 67.2876 98.2382 67.8143 98.8406 68.3116V67.0276C98.5448 66.8571 98.2049 66.7037 97.8305 66.5813L95.3372 67.4376Z" fill="#828282"/>
<path d="M83.4076 70.2471H67.7907V70.5175H83.4076V70.2471Z" fill="#828282"/>
<path d="M83.9147 71.33C83.8086 71.33 83.7042 71.2942 83.6163 71.2265C83.5596 71.1817 83.5179 71.1228 83.4828 71.0596H67.7896V71.33H83.2973L78.9029 95.0071H79.319C79.4477 95.0071 79.5538 95.0714 79.6415 95.1571C79.6465 95.1625 79.6525 95.1633 79.6565 95.1678L79.7201 95.2321L79.8663 95.3804L84.3533 71.2068L84.0701 71.3041C84.0192 71.3218 83.9665 71.33 83.9147 71.33Z" fill="#828282"/>
<path d="M83.4595 117.696C83.3468 117.451 83.4313 117.166 83.6358 117.016L83.6149 116.916H67.7901V118H83.9149C83.727 118 83.5466 117.889 83.4595 117.696Z" fill="#828282"/>
<path d="M84.4226 117.458C84.4226 117.339 84.3791 117.234 84.3189 117.145L84.2369 117.519C84.211 117.641 84.1083 117.729 83.9904 117.729H83.9896C83.8719 117.729 83.769 117.641 83.7432 117.517L83.6363 117.016C83.4307 117.166 83.3471 117.45 83.4598 117.696C83.5468 117.888 83.7273 117.999 83.9152 117.999C83.9862 117.999 84.0574 117.981 84.1266 117.948C84.3004 117.861 84.4226 117.676 84.4226 117.458Z" fill="#828282"/>
<path d="M78.9635 95.1884C79.1463 94.9831 79.4431 94.9741 79.6419 95.1582C79.5542 95.0716 79.4482 95.0073 79.3194 95.0073H67.7901V96.092H79.1405L78.9809 95.9296C78.7854 95.7295 78.7772 95.3973 78.9635 95.1884Z" fill="#828282"/>
<path d="M87.0484 103.927C86.923 103.927 86.8119 103.862 86.7175 103.771C86.7157 103.768 86.7125 103.767 86.7099 103.765L86.7056 103.761L83.9934 116.248L79.848 96.8078L79.1838 96.1345L83.6149 116.915H83.7896C84.0094 116.799 84.23 116.668 84.4506 116.54L87.1988 103.887C87.1486 103.904 87.0993 103.927 87.0484 103.927Z" fill="#828282"/>
<path d="M83.9153 116.916C84.0843 116.916 84.2275 117.009 84.3196 117.146L84.452 116.541C84.231 116.668 84.0099 116.8 83.7897 116.916H83.9153Z" fill="#828282"/>
<path d="M86.7181 103.771C86.8117 103.863 86.9232 103.928 87.0496 103.928C87.0998 103.928 87.1501 103.904 87.1995 103.888L87.2019 103.876C87.1517 103.894 87.1006 103.908 87.0488 103.908C86.9291 103.908 86.8117 103.863 86.7181 103.771Z" fill="#828282"/>
<path d="M83.7891 116.916H83.6145L83.6353 117.017C83.6562 117.003 83.6696 116.983 83.6923 116.971C83.7239 116.955 83.7564 116.933 83.7891 116.916Z" fill="#828282"/>
<path d="M83.7896 116.916C83.7568 116.933 83.7243 116.955 83.6925 116.971C83.6698 116.982 83.6564 117.003 83.6355 117.017L83.7428 117.518C83.7695 117.642 83.8725 117.729 83.9905 117.729H83.9913C84.1094 117.729 84.2123 117.642 84.2382 117.52L84.3204 117.146C84.2274 117.009 84.0851 116.916 83.9151 116.916H83.7896Z" fill="#828282"/>
<path d="M77.5161 42.4507C77.4992 42.4742 77.5 42.5028 77.4918 42.5298C77.5042 42.4921 77.5193 42.457 77.5435 42.4292C77.5351 42.4382 77.5235 42.44 77.5161 42.4507Z" fill="#828282"/>
<path d="M86.6298 46.0022L83.9633 45.0808L86.6298 46.0022Z" fill="#828282"/>
<path d="M86.6299 62.4567V62.3146L84.6681 60.4853C84.3356 53.3444 79.8501 45.5125 78.4028 43.1588L77.6516 42.8991C77.5914 42.8785 77.5447 42.834 77.5112 42.7812C77.5138 42.7847 77.5122 42.7883 77.5146 42.7911C77.5764 42.8856 83.7973 52.297 84.13 60.6353C84.1332 60.7146 84.1667 60.7896 84.2227 60.8423L86.0576 62.554L86.6141 62.4556C86.6191 62.4547 86.6241 62.4567 86.6299 62.4567Z" fill="#828282"/>
<path d="M86.9446 45.5001L83.6692 44.3672L86.9446 45.5001Z" fill="#828282"/>
<path d="M78.4029 43.1589L83.9628 45.0812L78.4029 43.1589Z" fill="#828282"/>
<path d="M77.4662 42.5771C77.4654 42.5853 77.4711 42.5906 77.4703 42.5985C77.4728 42.5746 77.4834 42.5523 77.4906 42.5291C77.4849 42.547 77.4695 42.5585 77.4662 42.5771Z" fill="#828282"/>
<path d="M77.6985 42.3461C77.7386 42.3408 77.7787 42.3326 77.8196 42.3461L83.6695 44.3675L79.4556 42.9112L84.1867 42.9058L87.4747 43.7139L83.255 42.563C83.2333 42.5576 83.2165 42.5416 83.1964 42.5336C83.1814 42.5274 83.1663 42.53 83.1523 42.5221C83.0344 42.4586 82.9066 42.3952 82.7821 42.3318H77.7352C77.7209 42.3318 77.7117 42.3444 77.6985 42.3461Z" fill="#828282"/>
<path d="M83.1965 42.5344C83.0979 42.4911 83.0135 42.4232 82.9584 42.3318H82.7822C82.9067 42.3954 83.0345 42.4589 83.1522 42.5225C83.1664 42.5307 83.1814 42.5279 83.1965 42.5344Z" fill="#828282"/>
<path d="M78.4023 43.1591L83.9623 45.0814L86.6294 46.0028V45.7911C86.6294 45.6304 86.7508 45.5001 86.9012 45.5001H86.9445L83.6691 44.368L77.8192 42.3457C77.7783 42.3324 77.7382 42.3403 77.6981 42.3457C77.6622 42.3519 77.6329 42.3645 77.602 42.384C77.5801 42.3984 77.5611 42.4091 77.5434 42.4288C77.5184 42.4564 77.5041 42.4922 77.4909 42.5287C77.4833 42.552 77.4724 42.5743 77.4698 42.5983C77.4666 42.6412 77.4791 42.6806 77.4933 42.7215C77.4999 42.7421 77.4999 42.7635 77.5109 42.7815C77.5442 42.834 77.5902 42.8788 77.6513 42.8994L78.4023 43.1591Z" fill="#828282"/>
<path d="M94.9824 61.6379C94.8352 61.6334 94.7191 61.5031 94.7225 61.345L94.7284 61.1191L89.2035 62.3315L89.2009 62.6834L88.6838 62.6798C88.6838 62.7003 88.6687 62.7173 88.6729 62.7387C88.6988 62.8735 88.8109 62.9665 88.9352 62.9665C88.9521 62.9665 88.9703 62.9645 88.988 62.9602L95.0426 61.6317C95.0685 61.6263 95.0801 61.6013 95.1028 61.5888C95.0659 61.6092 95.0334 61.6379 94.9891 61.6379H94.9824Z" fill="#828282"/>
<path d="M86.9016 46.0819C86.8732 46.0819 86.8455 46.0774 86.818 46.0676L86.6297 46.0024V62.4564C86.8748 62.4225 87.1041 62.5878 87.1744 62.8404V46.0819H86.9016Z" fill="#828282"/>
<path d="M86.9855 45.5139C87.0976 45.5533 87.1744 45.665 87.1744 45.7908V46.0818H96.1611L94.0278 45.4998H86.9446L86.9855 45.5139Z" fill="#828282"/>
<path d="M86.9017 46.0825H87.1748V45.7911C87.1748 45.6652 87.0977 45.5535 86.9863 45.5142L86.9454 45.5007H86.9017C86.7511 45.5007 86.6297 45.6302 86.6297 45.7911V46.0029L86.8182 46.0681C86.8457 46.078 86.8734 46.0825 86.9017 46.0825Z" fill="#828282"/>
<path d="M89.2785 48.7946L95.0265 48.6001L94.9788 50.5866L95.2229 50.5706C95.3707 50.5661 95.496 50.6794 95.506 50.8365L95.5662 48.3125C95.5688 48.2339 95.5403 48.1589 95.4886 48.1036C95.4366 48.0483 95.3674 48.008 95.2912 48.0206L89.0053 48.2339C88.8623 48.2384 88.7521 48.3652 88.7513 48.5161L89.2801 48.5206L89.2785 48.7946Z" fill="#828282"/>
<path d="M95.2582 51.1388L94.9654 51.1583L94.9134 53.3736L95.1461 53.3476C95.2907 53.3279 95.4246 53.4449 95.4405 53.6011C95.4547 53.7573 95.3485 53.8977 95.2021 53.9146L94.8992 53.9485L94.849 56.0628L94.9512 56.0467C95.1034 56.0234 95.2331 56.1324 95.2539 56.2878C95.2756 56.4431 95.1736 56.5878 95.0289 56.6109L94.8349 56.6413L94.7863 58.7064L94.9403 58.6761C95.0975 58.6494 95.2254 58.7492 95.2523 58.9037C95.279 59.0591 95.1837 59.2073 95.0389 59.2367L94.7721 59.2894L94.7285 61.1198L94.9361 61.0733C95.0833 61.042 95.2214 61.1421 95.2515 61.2957C95.2616 61.3457 95.2405 61.3876 95.2272 61.4331C95.2347 61.4071 95.2555 61.3885 95.2565 61.3609L95.5075 50.8369C95.5166 50.9931 95.4045 51.129 95.2582 51.1388Z" fill="#828282"/>
<path d="M94.9362 61.0736L94.7285 61.1193L94.7226 61.3453C94.7184 61.5033 94.8358 61.6339 94.983 61.6384H94.9888C95.0333 61.6384 95.0658 61.6097 95.1028 61.5891C95.1353 61.5713 95.1646 61.558 95.1882 61.5275C95.2098 61.4999 95.2165 61.4686 95.2275 61.4336C95.24 61.3882 95.2617 61.3453 95.2516 61.2962C95.2215 61.1424 95.0835 61.0414 94.9362 61.0736Z" fill="#828282"/>
<path d="M88.8813 62.4028L89.2044 62.3321L89.2144 60.3956C89.206 60.3974 89.1967 60.3982 89.1875 60.3982C89.0612 60.3982 88.9492 60.3026 88.9257 60.1661C88.8982 60.0116 88.9935 59.8625 89.1391 59.8332L89.2176 59.8171L89.2311 57.5198L89.1423 57.5333C89.1299 57.535 89.1156 57.5359 89.104 57.5359C88.9727 57.5359 88.8596 57.4349 88.8396 57.2922C88.8187 57.1367 88.9199 56.992 89.0654 56.9689L89.2345 56.9429L89.2469 54.5886L89.2152 54.5923C89.2068 54.5931 89.1967 54.594 89.1875 54.594C89.053 54.594 88.9365 54.4851 88.9225 54.3386C88.9064 54.1824 89.0128 54.0422 89.16 54.0253L89.2495 54.0146L89.2638 51.5467L89.1206 51.5574C89.1148 51.5574 89.109 51.5583 89.104 51.5583C88.9642 51.5583 88.8462 51.4424 88.8371 51.2904C88.8287 51.1334 88.9399 50.9986 89.0863 50.9887L89.267 50.9763L89.2797 48.7949L89.0229 48.8039C88.8781 48.8299 88.7518 48.6844 88.7476 48.5281C88.7476 48.5236 88.7518 48.5209 88.7518 48.5164H88.7476L88.6681 62.6803H88.6839C88.6866 62.55 88.7568 62.4304 88.8813 62.4026" fill="#828282"/>
<path d="M89.2045 62.3323L88.8815 62.4028C88.7567 62.4305 88.6864 62.5503 88.6838 62.6807L89.2019 62.6844L89.2045 62.3323Z" fill="#828282"/>
<path d="M89.0231 48.8035L89.2801 48.7945L89.2817 48.5202L88.7519 48.5166C88.7519 48.5211 88.7477 48.5239 88.7477 48.5273C88.7519 48.6847 88.8783 48.8294 89.0231 48.8035Z" fill="#828282"/>
<path fill-rule="evenodd" clip-rule="evenodd" d="M89.2292 50.9786L94.9792 50.5867L95.0131 51.1547L89.2631 51.5464L89.2292 50.9786Z" fill="#828282"/>
<path d="M95.2234 50.5702L94.9788 50.5871L94.9648 51.159L95.2577 51.1393C95.4042 51.1294 95.5163 50.9937 95.5072 50.8374V50.8363C95.4972 50.6791 95.3716 50.5657 95.2234 50.5702Z" fill="#828282"/>
<path d="M89.0864 50.9885C88.9399 50.9984 88.8278 51.1341 88.8369 51.2904C88.8461 51.4424 88.9643 51.5584 89.1041 51.5584C89.1091 51.5584 89.1149 51.5576 89.1208 51.5576L89.2638 51.5469L89.2672 50.9761L89.0864 50.9885Z" fill="#828282"/>
<path d="M94.913 53.3738L89.2494 54.0147L89.247 54.5879L94.8987 53.9487L94.913 53.3735V53.3738Z" fill="#828282"/>
<path d="M95.2014 53.9148C95.3487 53.8978 95.4551 53.7576 95.4401 53.6013C95.425 53.445 95.2902 53.3279 95.1461 53.3476L94.9127 53.3744L94.8992 53.9489L95.2014 53.9148Z" fill="#828282"/>
<path d="M89.1592 54.0254C89.0123 54.0423 88.9061 54.1825 88.9221 54.3391C88.9361 54.4855 89.0524 54.5944 89.1867 54.5944C89.1959 54.5944 89.2059 54.5936 89.2143 54.5927L89.246 54.5891L89.2486 54.0146L89.1592 54.0254Z" fill="#828282"/>
<path d="M94.8482 56.0625L89.2331 56.9428L89.2297 57.5196L94.834 56.6411L94.8482 56.0625Z" fill="#828282"/>
<path d="M95.0281 56.6113C95.1738 56.588 95.2751 56.4432 95.2542 56.2878C95.2323 56.1323 95.1035 56.0234 94.9502 56.0466L94.8481 56.0626L94.8346 56.6416L95.0279 56.6113H95.0281Z" fill="#828282"/>
<path d="M89.0646 56.9688C88.9193 56.992 88.8182 57.1369 88.8391 57.2924C88.8591 57.4343 88.9728 57.5362 89.103 57.5362C89.1155 57.5362 89.1289 57.5353 89.1423 57.5336L89.2299 57.5201L89.2333 56.9429L89.0646 56.9688Z" fill="#828282"/>
<path d="M94.7718 59.2896L94.7859 58.7065L89.2178 59.8172L89.2144 60.3957C89.221 60.3949 89.2286 60.3949 89.237 60.3932L94.7718 59.2896Z" fill="#828282"/>
<path d="M95.0389 59.2371C95.1836 59.2075 95.279 59.0593 95.2523 58.9039C95.2256 58.7501 95.0967 58.6491 94.9403 58.6759L94.7855 58.7064L94.772 59.2907L95.0389 59.2371Z" fill="#828282"/>
<path d="M89.1383 59.8332C88.993 59.8626 88.8978 60.0118 88.9252 60.1664C88.9487 60.3032 89.0605 60.3986 89.1874 60.3986C89.1958 60.3986 89.205 60.3978 89.2142 60.3961L89.2174 59.8171L89.1383 59.8332Z" fill="#828282"/>
<path d="M83.4074 63.7504V63.4789C83.4074 63.3791 83.4391 63.2897 83.4842 63.2085H67.7905V63.7504H83.4074Z" fill="#828282"/>
<path d="M83.4074 70.5175L67.7905 70.5173V71.0595H83.4834C83.4375 70.9772 83.4074 70.887 83.4074 70.7888V70.5173V70.5175Z" fill="#828282"/>
<path d="M83.8331 42.2817C83.8231 42.3031 83.8021 42.3119 83.7896 42.3316H84.2475L97.2073 45.5075C97.2373 45.5154 97.2542 45.5422 97.2801 45.5593C97.2983 45.5718 97.3244 45.569 97.3394 45.5861C97.3444 45.5923 97.3426 45.6022 97.3476 45.6084C97.3753 45.6431 97.3835 45.6851 97.3936 45.7297C97.3986 45.753 97.4186 45.77 97.4186 45.794L97.3561 53.4643C97.4379 53.4671 97.5165 53.4973 97.5901 53.5421L97.6535 45.7959C97.6553 45.5458 97.4972 45.3279 97.2708 45.2656L83.5532 41.5264C83.5706 41.5362 83.5907 41.545 83.6075 41.5549C83.8572 41.6888 83.9585 42.0147 83.8331 42.2817Z" fill="#828282"/>
<path d="M97.023 61.1727H97.0206C96.8694 61.1719 96.7491 61.0405 96.7507 60.8789L96.871 46.082H96.1615L96.6354 46.2106L96.5159 60.8772C96.5151 61.0486 96.5895 61.2102 96.7172 61.3146C96.8444 61.4174 97.0106 61.4496 97.1652 61.4022L98.6843 60.9271V65.1502L95.1313 66.3699C95.2826 66.3538 95.3503 66.3476 95.4596 66.3386L95.6552 66.3225C96.4523 66.2537 97.1903 66.3707 97.831 66.5816L98.8413 66.2342V62.6352L99.6986 63.0547V60.204C99.6986 60.0334 99.6234 59.8727 99.4955 59.77C99.3677 59.6674 99.2031 59.6353 99.0493 59.6843L97.5362 60.1566L97.5779 55.0889C97.5027 54.9978 97.4225 54.905 97.3447 54.8131L97.2946 60.8843C97.293 61.0441 97.1718 61.1727 97.023 61.1727Z" fill="#828282"/>
<path d="M84.1677 70.2466H84.5328L84.354 71.2064L95.3369 67.4378C95.2884 67.4423 95.2332 67.4477 95.1522 67.4565C94.8789 67.4878 94.6242 67.2701 94.5965 66.9718C94.5772 66.7682 94.6709 66.5852 94.8171 66.4772L84.4225 70.0458V63.9397L86.7781 63.5255C87.0546 63.4762 87.2425 63.1977 87.1958 62.9022C87.1924 62.8799 87.1792 62.8621 87.1741 62.8407V62.9549C87.1741 63.0254 87.1449 63.0852 87.103 63.1379C87.0905 63.1531 87.0779 63.161 87.0638 63.1737C87.0462 63.1889 87.0354 63.2092 87.0137 63.2191C86.9776 63.236 86.9393 63.245 86.9008 63.245C86.8372 63.245 86.7731 63.221 86.7229 63.1737L86.0577 62.554L83.8326 62.945C83.6797 62.9718 83.5584 63.0736 83.4842 63.2084H84.1677V70.2466Z" fill="#828282"/>
<path d="M83.6607 63.7507H83.4069V70.2471H83.6607V63.7507Z" fill="#828282"/>
<path d="M94.7473 45.5001L87.4751 43.7136L94.0277 45.5001H94.7471H94.7473Z" fill="#828282"/>
<path d="M97.3445 54.8135C97.4222 54.9054 97.5023 54.9982 97.5774 55.0884L97.5898 53.5421C97.5165 53.4965 97.438 53.4671 97.3563 53.4644L97.3445 54.8135Z" fill="#828282"/>
<path d="M82.8895 41.9038C82.8526 42.0566 82.8837 42.2091 82.9589 42.3315H83.7901C83.8027 42.3118 83.8236 42.303 83.8336 42.2816C83.959 42.0146 83.8579 41.6887 83.608 41.5539C83.5914 41.5449 83.5703 41.535 83.5537 41.526L83.5053 41.5127C83.2328 41.4403 82.9589 41.6145 82.8895 41.9038Z" fill="#828282"/>
<path d="M94.5971 66.9713C94.6239 67.2693 94.8796 67.4881 95.152 67.456C95.2338 67.4472 95.2881 67.4418 95.3375 67.4373L97.8307 66.5811C97.1908 66.3704 96.4528 66.2534 95.6557 66.3222L95.4594 66.3391C95.3499 66.3479 95.2823 66.3533 95.1319 66.3694L94.8177 66.4765C94.6715 66.5856 94.5778 66.7677 94.5971 66.9713Z" fill="#828282"/>
<path d="M83.6621 70.2471H83.4082V70.5177H83.6621V70.2471Z" fill="#828282"/>
<path d="M84.1677 70.2468V71.0602H83.4833C83.5184 71.1228 83.5595 71.1817 83.6163 71.2263C83.7039 71.2951 83.8084 71.3298 83.9145 71.3298C83.9664 71.3298 84.0189 71.3219 84.0699 71.3049L84.354 71.2066L84.5329 70.2468H84.1677Z" fill="#828282"/>
<path d="M86.9022 63.2455C86.7517 63.2455 86.6305 63.1151 86.6305 62.9543V62.4567C86.6246 62.4567 86.6196 62.4549 86.6146 62.4558L86.0577 62.554L86.7234 63.1741C86.7743 63.2215 86.8387 63.2455 86.9022 63.2455Z" fill="#828282"/>
<path d="M87.0137 63.2196C87.0345 63.2097 87.0461 63.1884 87.0638 63.1741C87.0171 63.2125 86.9644 63.2454 86.9008 63.2454C86.9393 63.2454 86.9778 63.2365 87.0137 63.2196Z" fill="#828282"/>
<path d="M83.1968 42.5334C83.2169 42.5416 83.2335 42.5576 83.2554 42.563L87.4749 43.7139L94.7471 45.5003H97.1459C97.196 45.5003 97.238 45.5316 97.2797 45.5593C97.2546 45.5423 97.238 45.5147 97.2079 45.5076L84.2481 42.3318H83.79C83.694 42.4826 83.5444 42.5799 83.3807 42.5799C83.3188 42.5799 83.257 42.5585 83.1968 42.5336" fill="#828282"/>
<path d="M83.3807 42.5803C83.5447 42.5803 83.6944 42.483 83.7905 42.332H82.9585C83.0145 42.4232 83.0982 42.4911 83.1969 42.534C83.2579 42.5589 83.3189 42.5803 83.3807 42.5803Z" fill="#828282"/>
<path d="M97.1467 46.0817H96.8716L96.7501 60.8795C96.7485 61.0402 96.8698 61.1715 97.0212 61.1724H97.0238C97.1718 61.1724 97.2941 61.0438 97.2957 60.8848L97.3451 54.8136C97.222 54.6681 97.1007 54.5235 96.971 54.3744C96.7813 54.1556 96.7921 53.8127 96.9971 53.6092C97.0983 53.5082 97.2288 53.4609 97.3567 53.4645L97.4196 45.7933C97.4196 45.7691 97.4003 45.7521 97.3953 45.729C97.4027 45.762 97.4212 45.7888 97.4177 45.8237C97.4019 45.9701 97.2848 46.0817 97.1467 46.0817Z" fill="#828282"/>
<path d="M97.3392 45.5859C97.3234 45.5689 97.2984 45.5717 97.2801 45.5591C97.3034 45.5751 97.3292 45.5859 97.3476 45.6081C97.3426 45.6019 97.3442 45.5921 97.3392 45.5859Z" fill="#828282"/>
<path d="M96.9711 54.3744C97.1008 54.5236 97.2221 54.6682 97.345 54.8137L97.3568 53.4637C97.2287 53.4612 97.0982 53.5083 96.997 53.6092C96.792 53.8128 96.7804 54.1556 96.9711 54.3744Z" fill="#828282"/>
<path d="M86.6297 62.4563V62.9548C86.6297 63.1157 86.7521 63.2452 86.9018 63.2452C86.9654 63.2452 87.0183 63.213 87.0651 63.1736C87.0794 63.1611 87.0918 63.1532 87.1037 63.138C87.1455 63.0861 87.1748 63.0254 87.1748 62.9548V62.8403C87.1045 62.5867 86.875 62.4214 86.6297 62.4563Z" fill="#828282"/>
<path d="M97.146 45.5H94.0276L96.1609 46.0814H97.146C97.2839 46.0814 97.4009 45.9706 97.4167 45.8234C97.4201 45.7893 97.4017 45.7616 97.3942 45.7295C97.3832 45.6849 97.3758 45.6429 97.3473 45.6082C97.3299 45.5857 97.304 45.575 97.2797 45.5589C97.237 45.5321 97.1961 45.5 97.146 45.5Z" fill="#828282"/>
<path d="M83.4075 63.7504H83.6617V70.2468H84.1686V63.2085H83.4844C83.4392 63.2897 83.4075 63.3791 83.4075 63.4789V63.7504Z" fill="#828282"/>
<path d="M83.4075 70.5179V70.7893C83.4075 70.8875 83.4376 70.9778 83.4836 71.0602H84.1691V70.2471H83.6618V70.5177H83.4075V70.5179Z" fill="#828282"/>
<path d="M104.026 65.9911C103.958 66.0232 103.888 66.0384 103.818 66.0384C103.625 66.0384 103.44 65.9189 103.355 65.7179L102.9 64.6216L99.6982 63.0554V65.5447C99.6982 65.7804 99.5563 65.9893 99.3465 66.0607L98.8409 66.2349V67.0277C99.0958 67.175 99.3206 67.3322 99.5077 67.4902C99.7259 67.6768 99.7618 68.0179 99.5871 68.2517C99.4877 68.3867 99.3407 68.4561 99.1911 68.4561C99.08 68.4561 98.9689 68.4178 98.8752 68.3383C98.8652 68.3295 98.8518 68.3205 98.8409 68.3126V92.2396C98.8736 92.1941 98.9095 92.1502 98.9412 92.1048C99.0641 91.9271 99.2679 91.8556 99.456 91.8995C99.4692 91.8084 99.5093 91.7227 99.5964 91.6852L99.8563 91.5761V72.3901L99.6381 72.3411C99.5003 72.3106 99.4125 72.1668 99.4418 72.0205C99.4702 71.8739 99.6056 71.7794 99.7418 71.8116L99.8563 71.8364V64.3233L106.274 67.4642V66.3545L107.228 66.7385L104.286 65.2992C104.385 65.567 104.274 65.8724 104.026 65.9911Z" fill="#828282"/>
<path d="M99.8563 95.428V92.1585L99.7961 92.1836C99.8795 92.3612 99.8737 92.58 99.756 92.7495C99.4652 93.1673 99.1536 93.5753 98.8409 93.9825V97.2798L101.136 95.9022C101.368 95.3958 101.597 94.8878 101.817 94.3709C101.933 94.0986 102.233 93.9816 102.488 94.1022C102.742 94.2254 102.855 94.5469 102.74 94.8192C102.717 94.8745 102.691 94.9281 102.667 94.9825L106.275 92.8174V91.5737L99.8563 95.428Z" fill="#828282"/>
<path d="M102.487 94.1017C102.232 93.9812 101.933 94.0982 101.816 94.3715C101.597 94.8874 101.367 95.3955 101.136 95.9027L102.667 94.9822C102.69 94.9286 102.716 94.8742 102.74 94.8195C102.854 94.5463 102.742 94.226 102.487 94.1017Z" fill="#828282"/>
<path d="M103.355 65.7176C103.44 65.9192 103.625 66.0379 103.819 66.0379C103.888 66.0379 103.958 66.0229 104.026 65.9906C104.274 65.8719 104.384 65.5676 104.286 65.2987L102.9 64.6211L103.355 65.7174V65.7176Z" fill="#828282"/>
<path d="M99.6897 92.2077C99.5886 92.2077 99.4934 92.1423 99.4541 92.0362C99.4364 91.9906 99.4499 91.9452 99.4565 91.8987C99.2678 91.855 99.0638 91.9272 98.9409 92.104C98.9092 92.1505 98.8733 92.1933 98.8406 92.2387V93.9817C99.1533 93.5746 99.4649 93.1664 99.7557 92.7485C99.8744 92.579 99.8802 92.3611 99.7958 92.1835L99.7824 92.1888C99.7523 92.2012 99.7214 92.2074 99.6897 92.2074" fill="#828282"/>
<path d="M98.8752 68.3381C98.9689 68.4176 99.08 68.4559 99.1911 68.4559C99.3407 68.4559 99.4877 68.3863 99.5879 68.2515C99.7626 68.0175 99.7267 67.6766 99.5077 67.49C99.3206 67.3318 99.0958 67.1748 98.8409 67.0273V68.3121C98.8518 68.3203 98.8652 68.3291 98.8752 68.3381Z" fill="#828282"/>
<path d="M98.8409 66.2343L99.3465 66.0603C99.5562 65.989 99.6982 65.7801 99.6982 65.5452V63.0551L98.8409 62.6355V66.2343Z" fill="#828282"/>
<path d="M107.229 66.7385L107.29 66.7679V92.2075L106.275 92.8173V92.8458L107.838 91.9441V66.983L107.229 66.7385Z" fill="#828282"/>
<path d="M107.29 66.7681L107.229 66.7385L106.275 66.3547V73.2749L106.834 73.4001C106.971 73.4303 107.059 73.5749 107.03 73.7215C107.005 73.8481 106.9 73.9366 106.782 73.9366C106.765 73.9366 106.748 73.9338 106.73 73.9304L106.275 73.8286V88.8683L106.689 88.6943C106.818 88.6416 106.967 88.7076 107.018 88.8469C107.069 88.9853 107.006 89.1435 106.875 89.1979L106.275 89.4514V92.8173L107.29 92.2077V66.7681H107.29Z" fill="#828282"/>
<path d="M99.8564 92.1577L106.275 89.4516V88.8677L99.8564 91.5758V92.1577Z" fill="#828282"/>
<path d="M99.5965 91.6849C99.5097 91.7224 99.4697 91.8081 99.4563 91.8993C99.5248 91.9162 99.5907 91.9447 99.65 91.9921C99.7158 92.044 99.7609 92.112 99.7952 92.1843L99.8561 92.1583V91.5759L99.5965 91.6849Z" fill="#828282"/>
<path d="M99.4563 91.8994C99.4497 91.9459 99.437 91.9914 99.4539 92.0362C99.493 92.1423 99.5882 92.2086 99.6894 92.2086C99.7211 92.2086 99.7519 92.2024 99.7828 92.1897L99.7954 92.1835C99.7611 92.1113 99.716 92.0441 99.6501 91.9923C99.5908 91.9451 99.5248 91.9164 99.4563 91.8994Z" fill="#828282"/>
<path d="M106.876 89.1982C107.007 89.1429 107.071 88.9857 107.02 88.8464C106.969 88.7079 106.819 88.6416 106.69 88.6944L106.275 88.8687V89.4521L106.876 89.1982Z" fill="#828282"/>
<path d="M99.8564 72.3899L106.275 73.8282V73.2755L99.8564 71.8364V72.3899Z" fill="#828282"/>
<path d="M99.7427 71.811C99.6063 71.7796 99.4707 71.8736 99.4421 72.02C99.413 72.1665 99.5008 72.3112 99.639 72.3416L99.8574 72.3899V71.8369L99.7427 71.811Z" fill="#828282"/>
<path d="M106.731 73.9311C106.748 73.9347 106.766 73.9373 106.783 73.9373C106.901 73.9373 107.006 73.8488 107.031 73.722C107.061 73.5756 106.973 73.4308 106.835 73.4004L106.275 73.2754V73.8292L106.731 73.9311Z" fill="#828282"/>
<path d="M79.1407 96.0913L79.1842 96.135L79.1752 96.0913H79.1407Z" fill="#828282"/>
<path d="M79.7353 96.0914H79.6952L79.8482 96.8084L86.7056 103.762L86.7066 103.758C86.6681 103.719 86.6238 103.688 86.5979 103.636C86.4684 103.371 86.5644 103.043 86.8119 102.905C86.9138 102.847 87.0106 102.784 87.1117 102.727L79.8665 95.3806L79.7353 96.0914Z" fill="#828282"/>
<path d="M86.5977 103.636C86.6238 103.688 86.6679 103.719 86.7064 103.758L86.8 103.322C86.8325 103.178 86.9647 103.081 87.104 103.121C87.242 103.154 87.3256 103.3 87.2937 103.445L87.2011 103.876C87.2755 103.849 87.3457 103.81 87.4032 103.746C87.5895 103.536 87.5813 103.203 87.3848 103.004L87.1117 102.726C87.0106 102.784 86.9135 102.847 86.8117 102.904C86.5644 103.043 86.4683 103.371 86.5977 103.636Z" fill="#828282"/>
<path d="M79.8264 95.5494C79.8264 95.7057 79.7631 95.8443 79.6639 95.9435L79.6957 96.0917H79.7357L79.8664 95.3815L79.7207 95.2332C79.7823 95.3226 79.8264 95.4279 79.8264 95.5494Z" fill="#828282"/>
<path d="M79.0721 95.6085C79.0412 95.4628 79.1265 95.3182 79.2634 95.2843C79.4014 95.2513 79.5349 95.3432 79.5668 95.4887L79.6637 95.9432C79.7632 95.8442 79.8267 95.705 79.8267 95.5496C79.8267 95.4281 79.7832 95.3227 79.7204 95.2325C79.6996 95.2022 79.6679 95.1834 79.642 95.1575C79.4431 94.9736 79.1465 94.9826 78.9634 95.1879C78.7771 95.3977 78.7855 95.7298 78.9819 95.9289L79.1407 96.0915H79.175L79.0721 95.6085Z" fill="#828282"/>
<path d="M79.6416 95.1575C79.6673 95.1836 79.6991 95.2023 79.7206 95.2329L79.6574 95.1682C79.6532 95.1637 79.6466 95.1629 79.6416 95.1575Z" fill="#828282"/>
<path d="M79.6966 96.0913H79.175L79.1843 96.1351L79.8499 96.8087L79.6966 96.0913Z" fill="#828282"/>
<path d="M87.1055 103.121C86.9657 103.081 86.8333 103.178 86.8007 103.323L86.7061 103.759C86.7103 103.762 86.7138 103.768 86.7178 103.772C86.8116 103.862 86.9287 103.909 87.0485 103.909C87.1005 103.909 87.1515 103.893 87.2018 103.876L87.2954 103.446C87.3273 103.3 87.2427 103.154 87.1055 103.121Z" fill="#828282"/>
<path d="M79.3195 96.0919H79.6953L79.6637 95.9431C79.5735 96.0337 79.4532 96.0919 79.3195 96.0919Z" fill="#828282"/>
<path d="M79.5675 95.4889C79.5357 95.3433 79.4017 95.2504 79.2645 95.2843C79.1271 95.3182 79.0409 95.4629 79.0718 95.6087L79.1749 96.092H79.3198C79.4536 96.092 79.5741 96.0331 79.6645 95.9437L79.5675 95.4889Z" fill="#828282"/>
<path d="M67.088 39.0868C67.088 39.0868 68.1825 39.0814 68.5334 39.0868C68.8844 39.093 68.1566 38.0019 68.1566 38.0019C68.1566 38.0019 67.5743 37.9976 67.2458 38.0019C66.9183 38.0055 67.088 39.0868 67.088 39.0868Z" fill="#828282"/>
</svg>
