<svg width="134" height="156" viewBox="0 0 134 156" fill="none" xmlns="http://www.w3.org/2000/svg">
<path d="M67 0L134 39V117L67 156L0 117V39L67 0Z" fill="#D5E3F6"/>
<path d="M64.0976 48.0686L70.6347 24.8907L67.8998 6C67.8998 6.53591 53.5583 46.1929 53.5583 46.1929" fill="white"/>
<path d="M64.0976 48.0686L70.6347 24.8907L67.8998 6C67.8998 6.53591 53.5583 46.1929 53.5583 46.1929" stroke="#828282" stroke-linecap="round" stroke-linejoin="round"/>
<path d="M62.0963 55.0354L70.5678 24.9577L69.1003 14.3065C69.1003 14.8424 56.4931 56.4421 56.4931 56.4421" fill="white"/>
<path d="M62.0963 55.0354L70.5678 24.9577L69.1003 14.3065C69.1003 14.8424 56.4931 56.4421 56.4931 56.4421" stroke="#828282" stroke-linecap="round" stroke-linejoin="round"/>
<path d="M43.8194 45.1212L35.4146 22.7471L23.5412 7.87573C23.8747 8.27766 34.6809 49.0735 34.6809 49.0735" fill="white"/>
<path d="M43.8194 45.1212L35.4146 22.7471L23.5412 7.87573C23.8747 8.27766 34.6809 49.0735 34.6809 49.0735" stroke="#828282" stroke-linecap="round" stroke-linejoin="round"/>
<path d="M45.7534 52.2888L35.4142 22.7469L29.8777 15.8472C30.2113 16.2491 41.9513 56.643 41.9513 56.643" fill="white"/>
<path d="M45.7534 52.2888L35.4142 22.7469L29.8777 15.8472C30.2113 16.2491 41.9513 56.643 41.9513 56.643" stroke="#828282" stroke-linecap="round" stroke-linejoin="round"/>
<path d="M43.5526 74.3279C43.5526 74.3279 59.1614 78.0793 66.5656 74.06L43.686 72.7202L43.5526 74.3279Z" fill="white" stroke="#828282" stroke-linecap="round" stroke-linejoin="round"/>
<path d="M9.60005 64.8826C9.60005 64.8826 6.73173 76.0026 9.86684 84.3761C10.6006 86.2518 22.4073 84.8451 22.4073 84.8451L23.1411 67.2272L9.60005 64.8826Z" fill="white" stroke="#828282" stroke-linecap="round" stroke-linejoin="round"/>
<path d="M23.0744 67.2943L34.0806 68.0982L35.8817 80.7589L22.4073 84.9122L23.0744 67.2943Z" fill="white" stroke="#828282" stroke-linecap="round" stroke-linejoin="round"/>
<path d="M34.0803 68.098L24.7417 66.0884L9.59979 64.8826L23.0741 67.2941L34.0803 68.098Z" fill="white" stroke="#828282" stroke-linecap="round" stroke-linejoin="round"/>
<path d="M14.2024 66.4905C14.2024 66.4905 18.6049 67.2943 20.4727 68.969C22.3404 70.6437 19.4054 79.0843 19.4054 79.0843L16.0034 80.759L7.9989 68.902L14.2024 66.4905Z" fill="white" stroke="#828282" stroke-linecap="round" stroke-linejoin="round"/>
<path d="M9.46659 77.3425C9.46659 77.3425 9.13307 79.5531 10.267 81.6297C11.401 83.7064 17.271 80.357 17.271 80.357L15.47 76.9406L9.46659 77.3425Z" fill="white" stroke="#828282" stroke-linecap="round" stroke-linejoin="round"/>
<path d="M8.46622 73.9259C8.46622 73.9259 6.53177 77.4763 9.19995 79.4859C11.4012 81.1606 16.4708 78.0122 16.4708 78.0122L16.0038 74.4618L8.46622 73.9259Z" fill="white" stroke="#828282" stroke-linecap="round" stroke-linejoin="round"/>
<path d="M7.99919 68.9019C7.99919 68.9019 5.66454 73.1891 8.13261 74.7968C10.6007 76.4045 16.1372 73.859 16.1372 73.859L16.2706 70.1077L7.99919 68.9019Z" fill="white" stroke="#828282" stroke-linecap="round" stroke-linejoin="round"/>
<path d="M8.19897 74.7968C8.19897 74.7968 14.2024 76.3375 17.004 74.8637Z" fill="white"/>
<path d="M8.19897 74.7968C8.19897 74.7968 14.2024 76.3375 17.004 74.8637" stroke="#828282" stroke-miterlimit="10" stroke-linecap="round" stroke-linejoin="round"/>
<path d="M9.59979 79.821C9.59979 79.821 13.6316 80.2776 16.4999 78Z" fill="white"/>
<path d="M9.59979 79.821C9.59979 79.821 13.6316 80.2776 16.4999 78" stroke="#828282" stroke-miterlimit="10" stroke-linecap="round" stroke-linejoin="round"/>
<path d="M14.2025 66.4905C14.2025 66.8924 12.0012 72.6534 13.3353 74.5291C14.6694 76.4047 17.5377 75.8018 17.5377 75.8018L18.0046 69.103L20.6728 69.17L19.4054 68.3661C18.0713 67.4953 16.6038 66.9594 15.0696 66.7584L14.2025 66.4905Z" fill="white" stroke="#828282" stroke-linecap="round" stroke-linejoin="round"/>
<path d="M22.6073 105.478L19.6723 106.75L22.6073 127.383L15.9368 135.287L21.9402 139.374L29.5445 131.536L22.6073 105.478Z" fill="white" stroke="#828282" stroke-linecap="round" stroke-linejoin="round"/>
<path d="M23.6081 131.067C23.6081 131.067 16.8043 138.235 13.8693 139.374C10.8675 140.512 10.7341 144.465 10.7341 144.465C10.7341 144.465 13.8026 146.206 15.9371 146.474C18.0717 146.742 22.1406 147.345 22.1406 147.345C22.1406 147.345 43.0191 141.651 43.3527 139.173C43.6862 136.694 34.2141 123.497 34.2141 123.497L23.6081 131.067Z" fill="white" stroke="#828282" stroke-linecap="round" stroke-linejoin="round"/>
<path d="M13.8692 139.373L17.3378 138.905L24.6087 143.527L39.0168 136.359L36.6822 126.579L23.6081 131.067C23.6081 131.067 16.2039 137.364 13.8692 139.373Z" fill="white" stroke="#828282" stroke-linecap="round" stroke-linejoin="round"/>
<path d="M16.5373 136.828L20.1394 136.024L27.9999 141.5" fill="white"/>
<path d="M16.5373 136.828L20.1394 136.024L27.9999 141.5" stroke="#828282" stroke-miterlimit="10" stroke-linecap="round" stroke-linejoin="round"/>
<path d="M20.1396 134.014L23.2748 132.675L32.5 139.5" fill="white"/>
<path d="M20.1396 134.014L23.2748 132.675L32.5 139.5" stroke="#828282" stroke-miterlimit="10" stroke-linecap="round" stroke-linejoin="round"/>
<path d="M22.6077 127.383L34.3477 136.024L37.1493 143.326L49.2895 138.369L40.4845 124.1C40.4845 124.1 39.2171 115.459 35.415 106.683L27.7439 102.329L20.1396 109.698L22.6077 127.383Z" fill="white" stroke="#828282" stroke-linecap="round" stroke-linejoin="round"/>
<path d="M61.496 78.2802L54.5588 77.4763L49.6226 78.2802L49.1556 88.7303C49.1556 88.7303 61.8962 92.8836 65.1647 88.7303C71.9686 80.1558 69.634 84.4431 69.634 84.4431L71.3016 79.9549L67.8329 76.2705L61.496 78.2802Z" fill="white" stroke="#828282" stroke-linecap="round" stroke-linejoin="round"/>
<path d="M45.6875 70.1077L51.8911 78.5482C51.8911 78.5482 60.2958 83.4383 65.4987 76.0026L62.0301 64.3467L45.6875 70.1077Z" fill="white" stroke="#828282" stroke-linecap="round" stroke-linejoin="round"/>
<path d="M63.9642 84.5102L65.0982 90.9411L85.4431 111.239L91.2464 106.214L68.2333 82.1656L63.9642 84.5102Z" fill="white" stroke="#828282" stroke-linecap="round" stroke-linejoin="round"/>
<path d="M66.0988 83.5052L68.4334 96.568C70.9015 99.9174 82.3746 112.243 85.8433 113.717C89.3119 115.191 95.1152 108.224 95.1152 108.224C95.1152 108.224 84.7093 91.5438 78.0389 86.0508L66.0988 83.5052Z" fill="white" stroke="#828282" stroke-linecap="round" stroke-linejoin="round"/>
<path d="M24.9415 101.057C25.0749 99.4488 25.8754 97.8411 27.2762 96.7023C28.5436 95.6305 30.0778 95.1616 31.612 95.2286L51.2231 79.5533L55.0253 82.3668C55.0253 82.3668 54.4249 90.8744 53.6245 91.2093C53.1575 91.4103 44.8862 97.0373 37.7488 101.927C37.6821 103.669 36.8816 105.411 35.4141 106.617C33.6131 108.09 31.3452 108.425 29.2773 107.755C28.2101 108.492 27.6097 108.894 27.6097 108.894L26.4757 105.813L26.409 105.746C25.4084 104.54 24.9415 103.133 24.9415 101.726L24.7414 101.191L24.9415 101.057Z" fill="white" stroke="#828282" stroke-linecap="round" stroke-linejoin="round"/>
<path d="M49.5555 79.7543C49.5555 79.7543 33.413 84.5104 22.807 98.8459L28.4102 106.818L48.8217 90.1374L49.5555 79.7543Z" fill="white" stroke="#828282" stroke-linecap="round" stroke-linejoin="round"/>
<path d="M25.5418 92.6161C25.5418 92.6161 20.0721 97.3723 19.1382 100.32C18.4712 102.53 18.8047 109.966 18.8047 109.966C21.0059 114.588 24.2745 116.799 24.2745 116.799L34.747 110.837L35.214 100.722L25.5418 92.6161Z" fill="white" stroke="#828282" stroke-linecap="round" stroke-linejoin="round"/>
<path d="M67.2992 45.3893L71.635 60.9305L66.5654 74.1272L62.4964 50.1454L67.2992 45.3893Z" fill="white" stroke="#828282" stroke-linecap="round" stroke-linejoin="round"/>
<path d="M56.0264 75.8687L66.5658 74.127L64.031 56.911L51.2904 64.8826L56.0264 75.8687Z" fill="white" stroke="#828282" stroke-linecap="round" stroke-linejoin="round"/>
<path d="M76.4378 88.2616L95.3819 85.85L93.2474 70.6437L73.3694 73.4572L76.4378 88.2616Z" fill="white" stroke="#828282" stroke-linecap="round" stroke-linejoin="round"/>
<path d="M87.3107 58.2509L93.2474 70.6437L73.3694 73.4572L74.0365 61.3323L87.3107 58.2509Z" fill="white" stroke="#828282" stroke-linecap="round" stroke-linejoin="round"/>
<path d="M75.5036 74.2612C75.5036 74.2612 81.0401 71.7826 85.8428 73.9932C90.6455 76.2038 86.1763 88.4627 86.1763 88.4627L80.2397 85.5822L75.5036 74.2612Z" fill="white" stroke="#828282" stroke-linecap="round" stroke-linejoin="round"/>
<path d="M78.5056 73.3904C76.3044 73.3904 74.9703 74.1942 74.9703 74.1942C74.9703 74.1942 72.9692 79.6873 73.1026 80.8931C73.1693 82.1658 77.5718 82.5678 77.5718 82.5678L78.2389 73.5913" fill="white"/>
<path d="M78.5056 73.3904C76.3044 73.3904 74.9703 74.1942 74.9703 74.1942C74.9703 74.1942 72.9692 79.6873 73.1026 80.8931C73.1693 82.1658 77.5718 82.5678 77.5718 82.5678L78.2389 73.5913" stroke="#828282" stroke-linecap="round" stroke-linejoin="round"/>
<path d="M77.8384 84.1755C77.8384 84.1755 76.9045 87.7259 78.9724 88.7307C81.0402 89.7356 86.1764 88.4628 86.1764 88.4628L85.2426 85.0464L77.8384 84.1755Z" fill="white" stroke="#828282" stroke-linecap="round" stroke-linejoin="round"/>
<path d="M76.7047 79.7542C76.7047 79.7542 75.4372 83.9074 77.5051 84.9123C79.5729 85.9171 85.4429 84.5103 85.4429 84.5103L85.1094 81.2949L76.7047 79.7542Z" fill="white" stroke="#828282" stroke-linecap="round" stroke-linejoin="round"/>
<path d="M77.1049 75.6011C77.1049 75.6011 74.7036 79.3524 76.7714 80.3572C78.3056 81.0941 82.7748 81.0271 84.309 80.6922C84.8427 80.5582 85.1095 80.4912 85.1095 80.4912L84.5091 76.8069L77.1049 75.6011Z" fill="white" stroke="#828282" stroke-linecap="round" stroke-linejoin="round"/>
<path d="M76.7714 80.3571C77.9721 81.5628 86.3102 80.893 86.3102 80.893Z" fill="white"/>
<path d="M76.7714 80.3571C77.9721 81.5628 86.3102 80.893 86.3102 80.893" stroke="#828282" stroke-miterlimit="10" stroke-linecap="round" stroke-linejoin="round"/>
<path d="M84.7757 84.9124C84.7757 84.9124 78.7723 85.7162 77.5049 84.9124Z" fill="white"/>
<path d="M84.7757 84.9124C84.7757 84.9124 78.7723 85.7162 77.5049 84.9124" stroke="#828282" stroke-miterlimit="10" stroke-linecap="round" stroke-linejoin="round"/>
<path d="M32.6799 50.2794L29.6782 52.3561C29.6782 52.3561 33.4804 59.0549 37.2826 65.2848C39.4838 68.9021 43.6195 74.3282 43.6195 74.3282L44.0864 73.5913L43.3526 69.3711L32.6799 50.2794Z" fill="white" stroke="#828282" stroke-linecap="round" stroke-linejoin="round"/>
<path d="M51.2903 64.8827L69.0337 52.7578L80.6403 43.7144C80.6403 43.7144 64.4977 40.365 48.422 38.9583C28.4773 37.2166 19.739 37.2835 19.739 37.2835L36.8154 62.2032L51.2903 64.8827Z" fill="white" stroke="#828282" stroke-linecap="round" stroke-linejoin="round"/>
<path d="M51.2905 64.8826L61.0293 40.365L37.1491 38.2883L36.6155 62.0692L51.2905 64.8826Z" fill="white" stroke="#828282" stroke-linecap="round" stroke-linejoin="round"/>
<path d="M80.7071 43.7145L51.2904 64.8827L52.0908 67.2273L79.1728 48.2027L80.7071 43.7145Z" fill="white" stroke="#828282" stroke-linecap="round" stroke-linejoin="round"/>
<path d="M51.2905 64.8827L56.0265 75.8688L44.0197 73.6582L36.6155 62.0692L51.2905 64.8827Z" fill="white" stroke="#828282" stroke-linecap="round" stroke-linejoin="round"/>
<path d="M19.8059 37.2834L21.3401 41.6377L38.3498 64.6816L37.9495 63.7438L19.8059 37.2834Z" fill="white" stroke="#828282" stroke-linecap="round" stroke-linejoin="round"/>
<path d="M98.2502 125.507L97.2496 143.125C97.2496 143.125 106.455 149.02 112.125 149.891C115.327 150.36 125.532 149.288 127 147.278L124.999 140.847C124.999 140.847 109.39 129.392 105.187 126.043C100.985 122.76 98.2502 125.507 98.2502 125.507Z" fill="white" stroke="#828282" stroke-linecap="round" stroke-linejoin="round"/>
<path d="M91.5799 112.444L93.0474 107.018L109.657 125.909L118.795 133.211L120.796 139.708L99.7178 133.679L91.5799 112.444Z" fill="white" stroke="#828282" stroke-linecap="round" stroke-linejoin="round"/>
<path d="M95.782 134.684L96.5157 138.436C96.5157 138.436 105.454 145.135 109.657 144.934L118.328 139.976L124.999 140.914L105.187 126.11L96.5157 127.45L95.782 134.684Z" fill="white" stroke="#828282" stroke-linecap="round" stroke-linejoin="round"/>
<path d="M104.5 143L114.393 136.694L120.796 138.168" fill="white"/>
<path d="M104.5 143L114.393 136.694L120.796 138.168" stroke="#828282" stroke-miterlimit="10" stroke-linecap="round" stroke-linejoin="round"/>
<path d="M100.251 141.919L109.657 133.479L117 135" fill="white"/>
<path d="M100.251 141.919L109.657 133.479L117 135" stroke="#828282" stroke-miterlimit="10" stroke-linecap="round" stroke-linejoin="round"/>
<path d="M86.1098 108.224L86.3766 121.153L95.0482 137.163L93.0471 141.919L100.251 147.412L101.252 138.704L109.657 125.909L90.7791 104.473L86.1098 108.224Z" fill="white" stroke="#828282" stroke-linecap="round" stroke-linejoin="round"/>
<path d="M52.291 81.2277C52.291 81.2277 53.5584 86.9217 57.5607 91.6108L63.2306 92.3477C63.2306 92.3477 59.962 86.5197 58.6279 82.9024L52.291 81.2277Z" fill="white" stroke="#828282" stroke-linecap="round" stroke-linejoin="round"/>
<path d="M84.7758 101.458C84.6424 102.262 80.6401 111.439 80.6401 111.439L84.9092 118.071C84.9092 118.071 95.6486 119.009 97.4496 118.004C98.717 117.334 98.4502 109.765 98.4502 109.765L91.9799 101.458H84.7758V101.458Z" fill="white" stroke="#828282" stroke-linecap="round" stroke-linejoin="round"/>
<path d="M51.2906 30.0488L56.9605 30.5847L58.3613 37.7525L56.0933 42.5756L51.2906 30.0488Z" fill="white" stroke="#828282" stroke-linecap="round" stroke-linejoin="round"/>
<path d="M48.1556 28.709C48.1556 28.709 60.3626 35.1399 55.8934 46.1929C52.8917 53.6956 46.4213 54.0305 42.6191 53.4946C40.6847 53.2267 38.8837 52.2888 37.4829 50.9491C34.5479 48.0016 29.8786 41.9057 32.947 34.269C32.8803 34.202 48.1556 28.709 48.1556 28.709Z" fill="white" stroke="#828282" stroke-linecap="round" stroke-linejoin="round"/>
<g opacity="0.74">
<path opacity="0.74" d="M43.2191 48.9395L41.8184 43.4464C41.8184 43.4464 39.0835 42.1737 36.482 45.4561L39.0834 50.5472L43.2191 48.9395Z" fill="white" stroke="#828282" stroke-linecap="round" stroke-linejoin="round"/>
<g opacity="0.74">
<path opacity="0.74" d="M41.4184 44.5181L43.2194 48.8723L39.0837 50.2791L37.8831 45.7239L41.4184 44.5181Z" fill="white" stroke="#828282" stroke-linecap="round" stroke-linejoin="round"/>
<path opacity="0.74" d="M41.6182 44.8529L45.2202 46.5276L44.5531 47.2645L41.6182 45.7907V44.8529Z" fill="white" stroke="#828282" stroke-linecap="round" stroke-linejoin="round"/>
<path opacity="0.74" d="M41.418 44.5181L43.4858 45.3219L42.9522 46.7287L41.2846 45.7239L41.418 44.5181Z" fill="white" stroke="#828282" stroke-linecap="round" stroke-linejoin="round"/>
<path opacity="0.74" d="M38.083 45.9918L36.282 48.8053L36.4154 49.6762L38.55 46.8627L38.083 45.9918Z" fill="white" stroke="#828282" stroke-linecap="round" stroke-linejoin="round"/>
<path opacity="0.74" d="M38.2831 45.5229L38.75 47.2646L38.083 48.6044L36.8156 47.1977L38.2831 45.5229Z" fill="white" stroke="#828282" stroke-linecap="round" stroke-linejoin="round"/>
<path opacity="0.74" d="M38.5499 45.4558C38.75 45.9917 39.2837 46.1257 39.8173 45.9917C40.351 45.7908 40.6178 45.3888 40.4176 44.9199L38.5499 45.4558Z" fill="white" stroke="#828282" stroke-linecap="round" stroke-linejoin="round"/>
<path opacity="0.74" d="M38.3499 46.9966C38.3499 46.9966 38.2164 47.8004 37.7495 48.5373C37.2159 49.2742 36.4154 49.6761 36.4154 49.6761L36.282 48.8053L38.3499 46.9966Z" fill="white" stroke="#828282" stroke-linecap="round" stroke-linejoin="round"/>
<path opacity="0.74" d="M37.9495 46.3269L38.7499 46.8628L37.8828 47.8006L37.4158 46.7958L37.9495 46.3269Z" fill="white" stroke="#828282" stroke-linecap="round" stroke-linejoin="round"/>
<g opacity="0.74">
<g opacity="0.74">
<path d="M38.8834 45.7908L38.75 46.8626H38.5499L38.4164 46.1257" fill="white"/>
<path d="M38.8834 45.7908L38.75 46.8626H38.5499L38.4164 46.1257" stroke="#828282" stroke-linecap="round" stroke-linejoin="round"/>
</g>
</g>
<path opacity="0.74" d="M41.2846 45.9249C41.2846 45.9249 41.8849 46.6618 42.8188 47.0637C43.686 47.4657 44.6198 47.2647 44.6198 47.2647L44.0862 46.3269L41.2846 45.9249Z" fill="white" stroke="#828282" stroke-linecap="round" stroke-linejoin="round"/>
<g opacity="0.74">
<g opacity="0.74">
<g opacity="0.74">
<path d="M40.2837 44.719L41.8179 46.3267L40.0836 46.9296L38.2159 47.5995L38.416 45.3889" fill="white"/>
<path d="M40.2837 44.719L41.8179 46.3267L40.0836 46.9296L38.2159 47.5995L38.416 45.3889" stroke="#828282" stroke-miterlimit="10" stroke-linecap="round" stroke-linejoin="round"/>
</g>
<path opacity="0.74" d="M40.5505 48.5374L40.0169 46.9297" stroke="#828282" stroke-miterlimit="10" stroke-linecap="round" stroke-linejoin="round"/>
</g>
<path opacity="0.74" d="M40.4841 44.652L40.6842 45.9917L42.2184 46.0587L41.3513 44.384L40.4841 44.652Z" fill="white" stroke="#828282" stroke-linecap="round" stroke-linejoin="round"/>
<g opacity="0.74">
<path d="M40.084 45.3219L40.6843 45.8578L41.0179 45.9248L40.6177 45.054" fill="white"/>
<path d="M40.084 45.3219L40.6843 45.8578L41.0179 45.9248L40.6177 45.054" stroke="#828282" stroke-linecap="round" stroke-linejoin="round"/>
</g>
</g>
</g>
<g opacity="0.74">
<g opacity="0.74">
<path opacity="0.74" d="M39.6839 44.3173L40.0174 45.59C40.0174 45.59 39.6839 46.0589 39.3504 45.858L38.6166 44.7192L39.6839 44.3173Z" fill="white" stroke="#828282" stroke-linecap="round" stroke-linejoin="round"/>
</g>
<path opacity="0.74" d="M39.8173 43.4465C39.884 43.6475 40.0174 43.9154 40.2175 43.8484C40.4177 43.7815 40.6845 43.4465 40.6178 43.1786C40.5511 42.9776 40.2842 42.8436 40.0841 42.9106C39.8173 42.9776 39.7506 43.2455 39.8173 43.4465Z" fill="white" stroke="#828282" stroke-linecap="round" stroke-linejoin="round"/>
<path opacity="0.74" d="M38.083 44.0496C38.1497 44.2505 38.2164 44.5185 38.0163 44.5855C37.8162 44.6524 37.416 44.5185 37.2826 44.3175C37.2158 44.1165 37.3492 43.8486 37.5493 43.7816C37.8162 43.7146 38.0163 43.8486 38.083 44.0496Z" fill="white" stroke="#828282" stroke-linecap="round" stroke-linejoin="round"/>
<path opacity="0.74" d="M37.4164 43.5134C37.75 44.5182 38.884 45.1881 39.3509 44.9872C39.8845 44.7862 40.2848 43.5804 39.9513 42.5756C39.6177 41.5708 38.8173 41.2358 38.1502 41.4368C37.4832 41.7717 37.0829 42.5086 37.4164 43.5134Z" fill="white" stroke="#828282" stroke-linecap="round" stroke-linejoin="round"/>
<path opacity="0.74" d="M37.4162 43.5134C37.4162 43.5134 37.8831 42.7765 38.4168 42.5756C39.1505 42.3746 40.0177 42.5756 40.0177 42.5756C39.6842 41.5708 38.8837 41.2358 38.2167 41.4368C37.4829 41.7717 37.0827 42.5086 37.4162 43.5134Z" fill="white" stroke="#828282" stroke-linecap="round" stroke-linejoin="round"/>
<path opacity="0.74" d="M39.3973 43.3572C39.4668 43.3329 39.4839 43.1998 39.4354 43.0601C39.3868 42.9203 39.2911 42.8268 39.2216 42.8512C39.152 42.8755 39.1349 43.0085 39.1834 43.1483C39.2319 43.288 39.3277 43.3816 39.3973 43.3572Z" fill="white" stroke="#828282" stroke-linecap="round" stroke-linejoin="round"/>
<path opacity="0.74" d="M38.4059 43.7421C38.4754 43.7177 38.4925 43.5847 38.444 43.445C38.3954 43.3052 38.2997 43.2117 38.2302 43.236C38.1606 43.2604 38.1435 43.3934 38.192 43.5332C38.2405 43.6729 38.3363 43.7664 38.4059 43.7421Z" fill="white" stroke="#828282" stroke-linecap="round" stroke-linejoin="round"/>
<path opacity="0.74" d="M39.2169 43.8484L38.6832 43.9824L38.9501 44.1163L39.2169 43.8484Z" fill="white" stroke="#828282" stroke-linecap="round" stroke-linejoin="round"/>
<g opacity="0.74">
<g opacity="0.74">
<g opacity="0.74">
<path opacity="0.74" d="M39.6175 42.5088C39.6175 42.5088 39.4841 42.3749 39.284 42.3749C39.0839 42.3749 38.9505 42.5758 38.9505 42.5758H38.8838C38.8838 42.5758 38.8171 42.5088 38.8838 42.5088C38.8838 42.5088 39.0839 42.3749 39.3507 42.3749C39.4841 42.3079 39.6175 42.5088 39.6175 42.5088Z" fill="white" stroke="#828282" stroke-linecap="round" stroke-linejoin="round"/>
</g>
</g>
</g>
<g opacity="0.74">
<g opacity="0.74">
<g opacity="0.74">
<path opacity="0.74" d="M37.5494 43.1116C37.5494 43.1116 37.5494 42.9106 37.8162 42.7767C38.0163 42.7097 38.2164 42.6427 38.2164 42.6427L38.2832 42.7097C38.2832 42.7767 38.2831 42.7767 38.2164 42.7767C38.2164 42.7767 38.0163 42.7767 37.8162 42.7767C37.6161 42.9106 37.5494 43.1116 37.5494 43.1116Z" fill="white" stroke="#828282" stroke-linecap="round" stroke-linejoin="round"/>
</g>
</g>
</g>
<g opacity="0.74">
<path d="M39.7508 44.2504C39.7508 44.2504 38.6835 44.6523 38.4834 44.5183Z" fill="white"/>
<path d="M39.7508 44.2504C39.7508 44.2504 38.6835 44.6523 38.4834 44.5183" stroke="#828282" stroke-linecap="round" stroke-linejoin="round"/>
</g>
</g>
<path opacity="0.74" d="M38.7499 50.3462L39.2836 48.9394L42.0852 48.0686L43.8862 49.4753L42.2853 52.6238L38.7499 50.3462Z" fill="white" stroke="#828282" stroke-linecap="round" stroke-linejoin="round"/>
<path opacity="0.74" d="M37.8827 45.724L38.4831 45.657L38.4163 46.5948L37.4158 46.7958L37.8827 45.724Z" fill="white" stroke="#828282" stroke-linecap="round" stroke-linejoin="round"/>
<path opacity="0.74" d="M39.4838 44.6523L39.6839 44.9203L39.0835 45.1882L39.0168 44.7193L39.4838 44.6523Z" fill="white" stroke="#828282" stroke-linecap="round" stroke-linejoin="round"/>
<path opacity="0.74" d="M40.0837 42.8436L39.9503 43.1115L39.4166 41.9727L37.4155 42.5086L37.8158 43.8484L37.749 44.0494C37.749 44.0494 36.7485 43.5804 37.082 42.2407C37.4155 40.7 39.35 41.3029 39.35 41.3029C39.35 41.3029 40.017 41.5708 40.0837 42.8436Z" fill="white" stroke="#828282" stroke-linecap="round" stroke-linejoin="round"/>
<path opacity="0.74" d="M40.0174 44.1833L39.9504 42.9775L40.0843 42.8435L40.1513 43.9823L40.0174 44.1833Z" fill="white" stroke="#828282" stroke-linecap="round" stroke-linejoin="round"/>
<g opacity="0.74">
<path d="M37.6158 43.5134L38.483 44.7862L38.3495 44.8532L37.2823 43.5804" fill="white"/>
<path d="M37.6158 43.5134L38.483 44.7862L38.3495 44.8532L37.2823 43.5804" stroke="#828282" stroke-linecap="round" stroke-linejoin="round"/>
</g>
</g>
<path d="M51.4241 46.193L49.0894 41.1019C49.0894 41.1019 50.4235 38.4224 54.4925 39.3602L55.6265 44.9203L51.4241 46.193Z" fill="white" stroke="#828282" stroke-linecap="round" stroke-linejoin="round"/>
<path d="M50.1566 41.6378L51.424 46.126L55.493 44.7192L53.6253 40.365L50.1566 41.6378Z" fill="white" stroke="#828282" stroke-linecap="round" stroke-linejoin="round"/>
<path d="M50.1568 42.0397L48.3558 45.523L49.423 45.724L50.7571 42.7765L50.1568 42.0397Z" fill="white" stroke="#828282" stroke-linecap="round" stroke-linejoin="round"/>
<path d="M50.1567 41.6379L49.0228 43.5136L50.2902 44.3175L50.9572 42.5088L50.1567 41.6379Z" fill="white" stroke="#828282" stroke-linecap="round" stroke-linejoin="round"/>
<path d="M53.6252 40.6998L56.7603 41.7716L57.2273 42.5755L53.7586 41.7047L53.6252 40.6998Z" fill="white" stroke="#828282" stroke-linecap="round" stroke-linejoin="round"/>
<path d="M53.492 40.432L53.8255 42.1067L55.2931 43.0446L55.5599 41.1689L53.492 40.432Z" fill="white" stroke="#828282" stroke-linecap="round" stroke-linejoin="round"/>
<path d="M52.8917 40.6329C53.0918 41.1688 52.7583 41.6377 52.2247 41.8387C51.691 42.0397 51.2908 41.9057 51.0906 41.3698L52.8917 40.6329Z" fill="white" stroke="#828282" stroke-linecap="round" stroke-linejoin="round"/>
<path d="M54.0254 41.7049C54.0254 41.7049 54.4923 42.4418 55.3595 42.7097C56.2266 42.9777 57.1605 42.5757 57.1605 42.5757L56.7603 41.5709L54.0254 41.7049Z" fill="white" stroke="#828282" stroke-linecap="round" stroke-linejoin="round"/>
<path d="M53.8921 40.9011L53.6252 41.839L54.8926 42.0399L54.6258 40.9011H53.8921Z" fill="white" stroke="#828282" stroke-linecap="round" stroke-linejoin="round"/>
<path d="M52.8252 41.035L53.6257 41.8389L53.7591 41.7049L53.4256 41.035" fill="white"/>
<path d="M52.8252 41.035L53.6257 41.8389L53.7591 41.7049L53.4256 41.035" stroke="#828282" stroke-linecap="round" stroke-linejoin="round"/>
<path d="M51.0907 42.6427C51.0907 42.6427 51.4242 43.2456 50.9573 44.1164C50.4904 44.9873 49.3564 45.7242 49.3564 45.7242L49.2897 43.9825L51.0907 42.6427Z" fill="white" stroke="#828282" stroke-linecap="round" stroke-linejoin="round"/>
<path d="M51.0907 41.1019L50.8906 43.3125L52.6249 42.7096L54.4926 42.0398L52.9584 40.499" fill="white"/>
<path d="M51.0907 41.1019L50.8906 43.3125L52.6249 42.7096L54.4926 42.0398L52.9584 40.499" stroke="#828282" stroke-miterlimit="10" stroke-linecap="round" stroke-linejoin="round"/>
<path d="M53.2253 44.2503L52.6917 42.7096" stroke="#828282" stroke-miterlimit="10" stroke-linecap="round" stroke-linejoin="round"/>
<path d="M50.9575 41.437L51.0909 42.3749L50.624 43.1117L50.0903 41.504L50.9575 41.437Z" fill="white" stroke="#828282" stroke-linecap="round" stroke-linejoin="round"/>
<path d="M51.6911 41.504L51.5577 42.2409L51.2908 42.4419L51.0907 41.571" fill="white"/>
<path d="M51.6911 41.504L51.5577 42.2409L51.2908 42.4419L51.0907 41.571" stroke="#828282" stroke-linecap="round" stroke-linejoin="round"/>
<path d="M51.3574 40.432L51.6909 41.7718C51.6909 41.7718 52.7582 41.6378 52.8917 41.2359L52.4914 40.097L51.3574 40.432Z" fill="white" stroke="#828282" stroke-linecap="round" stroke-linejoin="round"/>
<path d="M50.7576 39.8291C50.8243 40.03 50.891 40.298 50.6909 40.365C50.4908 40.432 50.0905 40.298 50.0238 40.097C49.9571 39.8961 50.0905 39.6281 50.2907 39.5611C50.4908 39.4941 50.6241 39.6281 50.7576 39.8291Z" fill="white" stroke="#828282" stroke-linecap="round" stroke-linejoin="round"/>
<path d="M52.4249 39.2262C52.4916 39.4271 52.625 39.6951 52.8251 39.6281C53.0253 39.5611 53.2921 39.2262 53.2254 38.9582C53.1587 38.7573 52.8919 38.6233 52.6918 38.6903C52.425 38.7573 52.3582 39.0252 52.4249 39.2262Z" fill="white" stroke="#828282" stroke-linecap="round" stroke-linejoin="round"/>
<path d="M52.6252 38.4224C52.7586 38.8243 53.0255 39.3602 52.892 39.7621C52.7586 40.298 52.2917 40.7 52.0249 40.8339C51.758 40.9009 51.2244 40.9679 50.8241 40.7C50.4906 40.432 50.2238 39.8291 50.0904 39.3602C49.7569 38.3554 50.1571 37.6185 50.8241 37.3506C51.4912 37.0826 52.2917 37.4175 52.6252 38.4224Z" fill="white" stroke="#828282" stroke-linecap="round" stroke-linejoin="round"/>
<path d="M52.6251 38.4222C52.6251 38.4222 51.8246 38.0873 51.291 38.2883C50.5572 38.5562 50.0903 39.2931 50.0903 39.2931C49.7568 38.2883 50.157 37.5514 50.824 37.2835C51.4911 37.0825 52.2916 37.4174 52.6251 38.4222Z" fill="white" stroke="#828282" stroke-linecap="round" stroke-linejoin="round"/>
<path d="M51.0164 39.531C51.086 39.5067 51.103 39.3736 51.0545 39.2339C51.006 39.0942 50.9103 39.0006 50.8407 39.025C50.7711 39.0493 50.754 39.1824 50.8025 39.3221C50.851 39.4619 50.9468 39.5554 51.0164 39.531Z" fill="white" stroke="#828282" stroke-linecap="round" stroke-linejoin="round"/>
<path d="M52.069 39.1212C52.1386 39.0969 52.1556 38.9639 52.1071 38.8241C52.0586 38.6844 51.9629 38.5908 51.8934 38.6152C51.8238 38.6395 51.8067 38.7726 51.8552 38.9123C51.9037 39.0521 51.9994 39.1456 52.069 39.1212Z" fill="white" stroke="#828282" stroke-linecap="round" stroke-linejoin="round"/>
<path d="M51.4243 39.8283L51.8902 39.561L51.757 39.8283H51.4243Z" fill="white" stroke="#828282" stroke-linecap="round" stroke-linejoin="round"/>
<path d="M52.4249 39.8291L51.0242 40.231C51.0242 40.298 51.1576 40.298 51.3577 40.298C51.7579 40.298 52.0914 40.0971 52.4249 39.8291Z" fill="white" stroke="#828282" stroke-linecap="round" stroke-linejoin="round"/>
<path d="M55.76 44.5184L54.4926 43.7815L51.8244 44.8533L51.2241 47.0639L54.4259 48.5377L55.76 44.5184Z" fill="white" stroke="#828282" stroke-linecap="round" stroke-linejoin="round"/>
<path d="M53.6256 40.3649L53.0919 40.7668L53.759 41.4367L54.6262 40.9008L53.6256 40.3649Z" fill="white" stroke="#828282" stroke-linecap="round" stroke-linejoin="round"/>
<path d="M50.1566 39.5612L50.4234 39.6951L50.1566 38.4893L52.091 37.6855L52.6247 38.9583L52.8247 39.0253C52.8247 39.0253 53.2917 38.0204 52.2245 37.2166C51.0238 36.2118 49.8898 37.8865 49.8898 37.8865C49.8898 37.8865 49.4228 38.4894 50.1566 39.5612Z" fill="white" stroke="#828282" stroke-linecap="round" stroke-linejoin="round"/>
<path d="M50.5569 48.7385L49.0894 42.8436C49.0894 42.8436 46.1544 41.4368 43.3528 44.9872L46.1544 50.4802L50.5569 48.7385Z" fill="white" stroke="#828282" stroke-linecap="round" stroke-linejoin="round"/>
<path d="M48.3557 44.4512L52.2913 45.7909L51.7576 46.5948L48.3557 45.456V44.4512Z" fill="white" stroke="#828282" stroke-linecap="round" stroke-linejoin="round"/>
<path d="M45.0203 45.5901L43.0858 48.6046L43.2192 49.5424L45.5539 46.5279L45.0203 45.5901Z" fill="white" stroke="#828282" stroke-linecap="round" stroke-linejoin="round"/>
<path d="M48.0887 44.1162L49.6896 47.7336L46.1543 49.4753L44.8202 45.255L48.0887 44.1162Z" fill="white" stroke="#828282" stroke-linecap="round" stroke-linejoin="round"/>
<path d="M48.0885 44.1162L50.3565 44.9201L49.8228 46.4608L48.0219 45.389L48.0885 44.1162Z" fill="white" stroke="#828282" stroke-linecap="round" stroke-linejoin="round"/>
<path d="M45.2873 45.1211L45.8209 46.9298L45.0871 48.4035L43.6863 46.9298L45.2873 45.1211Z" fill="white" stroke="#828282" stroke-linecap="round" stroke-linejoin="round"/>
<path d="M45.6205 45.054C45.8206 45.6569 46.4209 45.7909 47.0213 45.5899C47.6216 45.389 47.8884 44.987 47.6883 44.3842L45.6205 45.054Z" fill="white" stroke="#828282" stroke-linecap="round" stroke-linejoin="round"/>
<path d="M45.3538 46.6619C45.3538 46.6619 45.2204 47.5327 44.6867 48.3366C44.1531 49.1404 43.2192 49.5424 43.2192 49.5424L43.0858 48.6045L45.3538 46.6619Z" fill="white" stroke="#828282" stroke-linecap="round" stroke-linejoin="round"/>
<path d="M44.9538 45.9249L45.821 46.5278L44.8204 47.5326L44.3535 46.4608L44.9538 45.9249Z" fill="white" stroke="#828282" stroke-linecap="round" stroke-linejoin="round"/>
<path d="M47.4886 44.1832L49.0894 45.9249L47.2217 46.5948L45.2206 47.2647L45.4207 44.9201" fill="white"/>
<path d="M47.4886 44.1832L49.0894 45.9249L47.2217 46.5948L45.2206 47.2647L45.4207 44.9201" stroke="#828282" stroke-miterlimit="10" stroke-linecap="round" stroke-linejoin="round"/>
<path d="M47.7553 48.2696L47.155 46.5948" stroke="#828282" stroke-miterlimit="10" stroke-linecap="round" stroke-linejoin="round"/>
<path d="M45.9541 45.322L45.8207 46.5278L45.5538 46.4608L45.4204 45.724" fill="white"/>
<path d="M45.9541 45.322L45.8207 46.5278L45.5538 46.4608L45.4204 45.724" stroke="#828282" stroke-linecap="round" stroke-linejoin="round"/>
<path d="M46.8215 43.781L47.155 45.1208C47.155 45.1208 46.8214 45.5897 46.4212 45.3887L45.6208 44.1829L46.8215 43.781Z" fill="white" stroke="#828282" stroke-linecap="round" stroke-linejoin="round"/>
<path d="M46.8882 42.8435C46.9549 43.0444 47.0883 43.3124 47.2885 43.2454C47.4886 43.1784 47.7554 42.7765 47.6887 42.5755C47.622 42.3746 47.3551 42.2406 47.155 42.3076C46.9549 42.3746 46.8215 42.6425 46.8882 42.8435Z" fill="white" stroke="#828282" stroke-linecap="round" stroke-linejoin="round"/>
<path d="M45.0872 43.5135C45.1539 43.7145 45.2206 43.9825 45.0205 44.1164C44.8204 44.1834 44.3535 44.0494 44.2868 43.8485C44.2201 43.6475 44.3534 43.3796 44.5536 43.3126C44.7537 43.1116 45.0205 43.2456 45.0872 43.5135Z" fill="white" stroke="#828282" stroke-linecap="round" stroke-linejoin="round"/>
<path d="M44.3534 42.9105C44.7537 43.9823 45.8876 44.7192 46.488 44.5182C47.0216 44.3172 47.4886 42.9775 47.155 41.9057C46.7548 40.8339 45.9543 40.4319 45.2206 40.6999C44.4201 41.0348 44.0199 41.8387 44.3534 42.9105Z" fill="white" stroke="#828282" stroke-linecap="round" stroke-linejoin="round"/>
<path d="M44.3534 42.9105C44.3534 42.9105 44.8203 42.1066 45.4207 41.9057C46.2211 41.6377 47.155 41.9057 47.155 41.9057C46.7548 40.8339 45.9543 40.4319 45.2206 40.6999C44.4201 41.0348 44.0199 41.8387 44.3534 42.9105Z" fill="white" stroke="#828282" stroke-linecap="round" stroke-linejoin="round"/>
<path d="M46.476 42.7532C46.5456 42.7288 46.5627 42.5958 46.5141 42.4561C46.4656 42.3163 46.3699 42.2228 46.3003 42.2472C46.2307 42.2715 46.2136 42.4045 46.2622 42.5443C46.3107 42.684 46.4064 42.7776 46.476 42.7532Z" fill="white" stroke="#828282" stroke-linecap="round" stroke-linejoin="round"/>
<path d="M45.4078 43.1355C45.4774 43.1112 45.4944 42.9782 45.4459 42.8384C45.3974 42.6987 45.3017 42.6051 45.2321 42.6295C45.1626 42.6538 45.1455 42.7869 45.194 42.9266C45.2425 43.0663 45.3382 43.1599 45.4078 43.1355Z" fill="white" stroke="#828282" stroke-linecap="round" stroke-linejoin="round"/>
<path d="M45.6207 43.9153C45.9542 43.8483 46.4878 43.5803 46.5545 43.5133C46.6213 43.4464 46.7547 43.5133 46.7547 43.5803C46.7547 43.6473 46.7547 43.7813 46.688 43.8483L46.6213 43.9153C46.4212 44.0493 46.2211 44.1162 45.9542 44.1832C45.8875 44.1832 45.7541 44.1832 45.6874 44.1162C45.4873 44.0492 45.2872 43.9823 45.6207 43.9153Z" fill="white" stroke="#828282" stroke-linecap="round" stroke-linejoin="round"/>
<path d="M45.9545 44.1834C45.8878 44.1834 45.7543 44.1834 45.6876 44.1164C45.7543 43.9824 45.9544 43.9154 46.0878 43.8484C46.2879 43.7814 46.4881 43.8484 46.6215 43.9154C46.4881 44.1164 46.2213 44.1834 45.9545 44.1834Z" fill="white" stroke="#828282" stroke-linecap="round" stroke-linejoin="round"/>
<path d="M46.2877 43.3125L45.754 43.4465L46.0209 43.5804L46.2877 43.3125Z" fill="white" stroke="#828282" stroke-linecap="round" stroke-linejoin="round"/>
<path d="M46.6872 41.8384C46.6872 41.8384 46.5538 41.6374 46.287 41.7044C46.1536 41.7044 46.0869 41.7714 46.0202 41.7714C45.9534 41.8384 45.8867 41.8384 45.8867 41.8384C45.8867 41.8384 45.82 41.8384 45.82 41.7714C45.7533 41.7714 45.7533 41.7044 45.82 41.7044C45.82 41.7044 46.0202 41.5704 46.287 41.5704C46.5538 41.6374 46.6872 41.8384 46.6872 41.8384Z" fill="white" stroke="#828282" stroke-linecap="round" stroke-linejoin="round"/>
<path d="M44.4869 42.5086C44.4869 42.5086 44.4869 42.2406 44.7537 42.1736C44.9538 42.0397 45.2207 42.0397 45.2207 42.0397L45.2874 42.1066C45.2874 42.1736 45.2874 42.1736 45.2207 42.1736C45.2207 42.1736 45.0206 42.1736 44.8205 42.1736C44.5536 42.2406 44.4869 42.5086 44.4869 42.5086Z" fill="white" stroke="#828282" stroke-linecap="round" stroke-linejoin="round"/>
<path d="M44.8203 45.2551H45.4874L45.4206 46.26L44.3534 46.4609L44.8203 45.2551Z" fill="white" stroke="#828282" stroke-linecap="round" stroke-linejoin="round"/>
<path d="M47.2216 42.3077L47.0882 42.5087L46.2878 41.1019L44.42 41.6378L44.7535 43.3125L44.6868 43.5135C44.6868 43.5135 44.0198 43.1116 44.1532 41.6378C44.2866 40.1641 46.3544 40.767 46.3544 40.767C46.3544 40.767 47.0215 41.1689 47.2216 42.3077Z" fill="white" stroke="#828282" stroke-linecap="round" stroke-linejoin="round"/>
<path d="M45.5541 41.6377C45.5541 41.6377 46.5547 41.3028 46.6214 40.9008C46.7548 40.4989 46.0877 39.963 46.0877 39.963L46.021 40.4989C46.021 40.4989 45.9543 39.963 44.887 40.164C44.5535 40.231 44.3534 40.231 44.3534 40.231L44.6202 40.5659L43.9532 40.6999L44.22 41.1688L43.8198 41.0348C43.8198 41.0348 43.8198 41.7717 44.1533 41.8387C44.5535 41.9727 45.5541 41.6377 45.5541 41.6377Z" fill="white" stroke="#828282" stroke-linecap="round" stroke-linejoin="round"/>
<path d="M53.6252 45.1212V46.394L52.2911 46.7959L52.091 45.4562L53.6252 45.1212Z" fill="white" stroke="#828282" stroke-linecap="round" stroke-linejoin="round"/>
<path d="M52.8247 47.4656L51.8241 46.0589L54.559 45.5229L55.1593 48.8054L53.8252 49.0063L52.8247 47.4656Z" fill="white" stroke="#828282" stroke-miterlimit="10" stroke-linecap="round" stroke-linejoin="round"/>
<path d="M54.0922 44.9202L53.9589 45.992L52.9583 46.3939L52.0244 45.59L54.0922 44.9202Z" fill="white" stroke="#828282" stroke-linecap="round" stroke-linejoin="round"/>
<path d="M48.1556 28.709C48.1556 28.709 60.3626 35.1399 55.8934 46.1929C52.8917 53.6956 46.4213 54.0305 42.6191 53.4946C40.6847 53.2267 38.8837 52.2888 37.4829 50.9491C34.5479 48.0016 29.8786 41.9057 32.947 34.269C32.8803 34.202 48.1556 28.709 48.1556 28.709Z" fill="white" stroke="#828282" stroke-linecap="round" stroke-linejoin="round"/>
<path d="M50.1566 37.4175L51.7575 47.9347L44.6868 50.4802L40.0175 39.0252L50.5569 35.4749L50.1566 37.4175Z" fill="white" stroke="#828282" stroke-miterlimit="10" stroke-linecap="round" stroke-linejoin="round"/>
<path d="M51.7577 46.1261L44.0867 48.9396L42.2857 52.423C42.2857 52.423 36.349 50.4133 31.8798 40.4321C31.813 40.2981 31.2127 44.2504 31.2127 44.2504C31.2127 44.2504 38.2167 54.4996 44.0867 56.0404L54.5593 52.222C54.5593 52.222 59.9624 44.3174 55.3598 35.7429C55.3598 35.7429 57.8946 43.8485 54.2258 48.0018L51.7577 46.1261Z" fill="white" stroke="#828282" stroke-linecap="round" stroke-linejoin="round"/>
<path d="M42.2186 25.2926L55.1592 31.3215L55.6929 34.0011L50.3565 37.8864L40.8178 41.1688L31.6126 39.4271L30.4119 38.1543L36.7488 26.8333L42.2186 25.2926Z" fill="white" stroke="#828282" stroke-linecap="round" stroke-linejoin="round"/>
<path d="M32.7466 36.2786L28.8777 39.159L31.3458 47.6666L34.9479 48.2025C34.9479 48.2025 35.3481 43.5803 32.7466 36.2786Z" fill="white" stroke="#828282" stroke-linecap="round" stroke-linejoin="round"/>
<path d="M28.878 39.1592C28.878 39.1592 31.146 41.7047 31.3461 47.6667C31.3461 47.6667 28.7446 44.1163 28.878 39.1592Z" fill="white" stroke="#828282" stroke-linecap="round" stroke-linejoin="round"/>
<path d="M33.2137 37.9535L34.0808 40.767L30.8124 41.9728C30.8124 41.9728 30.4788 41.1689 29.7451 39.8961L33.2137 37.9535Z" fill="white" stroke="#828282" stroke-linecap="round" stroke-linejoin="round"/>
<path d="M42.2187 25.2926C42.2187 25.2926 48.2222 30.5177 50.3567 37.8864L41.0181 41.0348C41.0181 41.0348 38.1498 29.7138 36.749 26.8333L42.2187 25.2926Z" fill="white" stroke="#828282" stroke-linecap="round" stroke-linejoin="round"/>
<path d="M36.1489 31.0535L38.4169 38.5562L33.1472 37.6184L32.1467 31.4555L35.2818 29.5128L36.1489 31.0535Z" fill="white" stroke="#828282" stroke-linecap="round" stroke-linejoin="round"/>
<path d="M32.1467 31.4556L36.149 31.0537L38.4169 38.5564L33.1473 37.6186L32.1467 31.4556Z" fill="white" stroke="#828282" stroke-linecap="round" stroke-linejoin="round"/>
<path d="M35.3487 32.5945L37.1497 38.2885L34.2147 37.7525C34.148 37.4176 33.2141 32.5275 33.2141 32.5275L35.3487 32.5945Z" fill="white" stroke="#828282" stroke-linecap="round" stroke-linejoin="round"/>
<path d="M34.2147 37.7525C34.148 37.4176 33.2141 32.5275 33.2141 32.5275L35.3487 32.5945" fill="white"/>
<path d="M34.2147 37.7525C34.148 37.4176 33.2141 32.5275 33.2141 32.5275L35.3487 32.5945" stroke="#828282" stroke-linecap="round" stroke-linejoin="round"/>
<path d="M35.4999 34H33.4999" stroke="#828282" stroke-miterlimit="10" stroke-linecap="round" stroke-linejoin="round"/>
<path d="M36 36H34" stroke="#828282" stroke-miterlimit="10" stroke-linecap="round" stroke-linejoin="round"/>
<path d="M52.0247 26.7662L54.2926 31.4554L51.491 34.4699C49.0229 29.8477 45.2875 26.8332 45.2875 26.8332L52.0247 26.7662Z" fill="white" stroke="#828282" stroke-linecap="round" stroke-linejoin="round"/>
<path d="M52.0245 26.7661L49.223 28.7088L51.5576 34.4698L54.3592 31.4553L52.0245 26.7661Z" fill="white" stroke="#828282" stroke-linecap="round" stroke-linejoin="round"/>
<path d="M52.0245 26.7661L49.223 28.7088L51.3575 34.0009L54.4259 31.6563L52.0245 26.7661Z" fill="white" stroke="#828282" stroke-linecap="round" stroke-linejoin="round"/>
<path d="M52.0249 26.7661L50.9576 27.503L45.3544 26.7661H52.0249Z" fill="white" stroke="#828282" stroke-linecap="round" stroke-linejoin="round"/>
<path d="M53.959 31.9912L51.7578 27.5699L50.0901 28.7087L52.2914 33.2639L53.959 31.9912Z" fill="white" stroke="#828282" stroke-linecap="round" stroke-linejoin="round"/>
<path d="M53.8924 31.8572L51.7578 27.5699L50.0901 28.7087" fill="white"/>
<path d="M53.8924 31.8572L51.7578 27.5699L50.0901 28.7087" stroke="#828282" stroke-linecap="round" stroke-linejoin="round"/>
<path d="M53.0918 30.4507L51.5576 31.6565" stroke="#828282" stroke-miterlimit="10" stroke-linecap="round" stroke-linejoin="round"/>
<path d="M52.5341 29L50.9998 30.0718" stroke="#828282" stroke-miterlimit="10" stroke-linecap="round" stroke-linejoin="round"/>
<path d="M55.1593 31.1207L55.6929 34.0012L50.3566 37.8865L49.4894 35.408L55.1593 31.1207Z" fill="white" stroke="#828282" stroke-linecap="round" stroke-linejoin="round"/>
<path d="M56.9603 30.5847L58.361 37.7524L57.0269 40.5659L56.6267 38.3553L57.4938 36.8146L56.2932 30.5177L56.9603 30.5847Z" fill="white" stroke="#828282" stroke-linecap="round" stroke-linejoin="round"/>
<path d="M55.3595 35.14L55.8264 34.8721C55.8264 34.8721 58.0944 41.102 57.2273 45.0543C56.0266 50.6143 54.4923 52.0881 54.4923 52.0881L54.2256 48.4707C54.2256 48.4707 56.0932 46.461 56.4935 43.7145C56.827 41.102 56.827 39.0923 55.3595 35.14Z" fill="white" stroke="#828282" stroke-linecap="round" stroke-linejoin="round"/>
<path d="M51.8242 46.059L54.2923 47.8676L54.5591 52.0879L51.8242 46.059Z" fill="white" stroke="#828282" stroke-linecap="round" stroke-linejoin="round"/>
<path d="M51.8243 46.059L54.5592 52.0879L53.4252 52.4898L50.6903 46.4609L51.8243 46.059Z" fill="white" stroke="#828282" stroke-linecap="round" stroke-linejoin="round"/>
<path d="M41.018 41.0348L33.7472 39.896L33.1469 37.6184L40.6178 38.8912L41.018 41.0348Z" fill="white" stroke="#828282" stroke-linecap="round" stroke-linejoin="round"/>
<path d="M44.0861 48.9394V56.0402L54.5588 52.0879L51.8238 46.059L44.0861 48.9394Z" fill="white" stroke="#828282" stroke-linecap="round" stroke-linejoin="round"/>
<path d="M90.7124 144.464L88.5779 144.331L84.0419 119.21L87.1103 72.4521L94.848 49.4082L96.9159 49.6092L90.7124 144.464Z" fill="white" stroke="#828282" stroke-linecap="round" stroke-linejoin="round"/>
<path d="M99.7174 120.282L90.7123 144.465L86.1764 119.411L89.2449 72.5863L96.9159 49.6094L102.786 73.4572L99.7174 120.282Z" fill="white" stroke="#828282" stroke-linecap="round" stroke-linejoin="round"/>
<path d="M86.1764 119.411L89.2449 72.5863L96.9159 49.6094L102.786 73.4572L86.1764 119.411Z" fill="white" stroke="#828282" stroke-linecap="round" stroke-linejoin="round"/>
<path d="M37.3491 65.6865C37.6827 66.6913 36.6821 69.7057 34.681 71.7154L34.0139 68.031L28.6776 66.6913C32.413 65.6195 33.3469 60.6623 33.3469 58.3177C34.5698 60.439 37.0823 64.8826 37.3491 65.6865Z" fill="white" stroke="#828282"/>
<path d="M79.373 59.9924C78.5948 58.541 76.2379 55.0352 73.0361 52.6237L70.0344 54.9682L71.702 60.9972L71.0349 62.6719L73.7031 67.0261L74.0366 61.3321L79.373 59.9924Z" fill="white" stroke="#828282"/>
</svg>